<?xml version="1.0" encoding="UTF-8"?>
<svg version="1.1" viewBox="0 0 1024 1024" width="1280" height="1280" xmlns="http://www.w3.org/2000/svg">
<path transform="translate(296,198)" d="m0 0h429l20 3 15 5 13 7 13 10 8 8 7 10 8 16 5 15 2 11v469l-3 16-5 13-7 13-7 9-9 10-11 8-16 8-14 4-14 2h-438l-14-2-15-5-12-6-14-11-10-11-9-14-5-11-4-13-2-11-1-14v-450l2-14 5-16 7-14 8-11 9-10 15-11 15-7 13-4z" fill="#162836"/>
<path transform="translate(296,198)" d="m0 0h429l20 3 15 5 13 7 13 10 8 8 7 10 8 16 5 15 2 11v469l-3 16-5 13-7 13-7 9-9 10-11 8-16 8-14 4-14 2h-438l-14-2-15-5-12-6-14-11-10-11-9-14-5-11-4-13-2-11-1-14v-450l2-14 5-16 7-14 8-11 9-10 15-11 15-7 13-4zm35 64-16 4-11 6-9 7-9 10-7 14-3 14v399l4 15 5 10 8 10 7 7 14 8 16 4h363l13-3 15-8 10-9 9-13 5-13 2-9 1-36v-330l-1-35-4-14-6-11-11-12-8-6-10-5-15-4z" fill="#6DE7F5"/>
<path transform="translate(360,317)" d="m0 0h200v211h33v-24h55l6 5 5 2 9-2 6-7 1-2v-6l-5-8-4-2h-9l-6 4-2 4h-56v-35l3-1h27l9 9 5 4 5 5 1 3 8-7 13-13 5-4 1-2h2l-7-9-15-15v-30l7-3 7-7 3-7 2-1h10v-12h-10l-4-9-7-8-7-3-1-3v-27h14l8 3 12 7 8 10 4 10 1 5 1 30v278l-1 21-4 11-4 6-5 6-11 7-7 2h-60v-58l4 2 15 15 3 12 5 6 8 4 7 1 9-3 7-5 4-8v-13l-6-9-10-5h-10l-12 6-14-15-10-8v-13h26l7 7 5 3 34 1v-45l-33 1-6 4-6 7-3 8h-37v-54h30l6 2 7 6 7 8 6 4 7-7 8-7 10-10 1-3-14-15-11-10-4 1-13 13-5 6h-68v33h-15v-145l-117 1v66l-1 1h-14l-5-1-1-30-6-8 2-9v-8l-2-6-4-6-7-5-3-1h-14l-8 3-5 5-3 5-1 5v10l5 10 8 6 4 1v29h-12l-1-1-1-22-7 7-3 4-1 12h-21l-1-4v-108l1-38 5-12 7-9 9-6 7-3z" fill="#F6FBFC"/>
<path transform="translate(221,522)" d="m0 0 13 2 3-2h6l12 7 4 6 5 4 6-1v-8l2-6 2 3 1 45h1l1 144 4 15 5 10 8 10 9 8 14 7 13 3h363l11-1h3l1 7-2 4 3 3 1 4 9 4-2 2h-1l6 11 8 7 1 3 2 1-1 4-5 2-3 9-9 3-8 2h-424l-15-4-13-6-11-7-13-12-11-15-7-15-4-13-2-11v-155l1-55 2-1 1-9 2-5h2l1 3h3 2z" fill="#22CFE9"/>
<path transform="translate(330,528)" d="m0 0h177v42l-10 9-27 27-1 2h-84v-22l10-6 4-6 2-5v-10l-3-7-5-6-8-4h-12l-10 5-5 7-2 6v10l4 8 8 7 4 1 1 22h-26v41h9l1 31 3 8 7 6 3 1h9l10-5 5-8 1-5 1-28h19v16l-3 4v8l5 5h8l4-5 1-2v-6l-3-4v-16h19v33l-1 31h-87l-11-4-8-6-7-8-4-9-1-4v-153z" fill="#F7FBFC"/>
<path transform="translate(660,278)" d="m0 0h33l13 3 11 7 8 8v2l3 1 4 10 2 12 1 7-1 25-2 10-1 21 1 10-1 1v7l-1 4h-2v2l-2 1-1 5-3 1-1-4-2-1-1-2-4-4-1-3-3-3-2-9-4-1-1 1v7l1 6h-2v16h-2l-1-8v-19l1-7h-2l-1-2-1-30-4-13-8-11-13-8-7-2h-14l-2 4h-6v8l-2 2-1-10-1 25-9 4-6 5-6 11h-24l-1-48v-3l17-1h9v-2l5-2-5-6-9-1-7 3-6-1-7 3-9 3h-7l-1-3-4-2-3-2-2 1-4-2h-8l-13-6h-7l-10-2-1-1h-10l-3-1-8-1-2-4 4-2 9-3 18-2 16-1 45-1 2 1 13-1h19l24-1z" fill="#293D4C"/>
<path transform="translate(433,332)" d="m0 0h9l6 4 3 6v7l-5 8-4 1v26h48l-1-11v-10l1-5-4-2-4-6v-10l5-6 3-2h10l6 4 3 6v8l-4 6-3 2v26h30v-36l5-9 6-6h2v82h-117v-39l2-18-5-6-1-2v-9l7-8z" fill="#172937"/>
<path transform="translate(537,623)" d="m0 0h1v90h-52v-64h18v16l-3 6 1 7 3 4h9l4-4 1-9-2-3v-23l17-17z" fill="#F5FBFC"/>
<path transform="translate(647,521)" d="m0 0 4 1 15 14 10 11-3 5-15 15-8 7h-3l-10-9-6-7-3-2-5-1-30-1v19l-31 1-2 1v-33l68-1 12-13z" fill="#182A38"/>
<path transform="translate(547,621)" d="m0 0h12l1 3-1 28h47l1 3-1 28-5 1h-63v-62z" fill="#445F6F"/>
<path transform="translate(370,347)" d="m0 0h17l10 5 8 9 3 9v13l-4 9-7 8-8 4-11 2-10-2-8-4-8-10-3-8v-12l3-7 6-9 8-5z" fill="#172A38"/>
<path transform="translate(593,379)" d="m0 0h24l7 10 7 6 7 2v30l-15 16-1 1h-29z" fill="#F7FCFC"/>
<path transform="translate(448,542)" d="m0 0h9l9 4 7 6 4 8 1 9-3 10-7 8-7 4-5 2h-9l-9-4-5-5-4-5-2-6h-15v-12h16l2-6 8-9 7-3z" fill="#182B39"/>
<path transform="translate(535,592)" d="m0 0h15l10 1v12l-23 1-15 14-15 15-40 1h-14l-35-1h-20l-3 1-2-2-5 1h-8l-2-4h2l1-2 3-1 1-2h-7l-3-2h28l100-1 30-30z" fill="#455D6C"/>
<path transform="translate(593,317)" d="m0 0h45v30l-9 4-6 5-6 11h-24z" fill="#F8FCFC"/>
<path transform="translate(457,460)" d="m0 0h50v37l-4 1h-46z" fill="#F2FAFC"/>
<path transform="translate(563,683)" d="m0 0h43l1 2-1 16-24 1-44-1v-17z" fill="#162836"/>
<path transform="translate(402,279)" d="m0 0 1 2-24 2-10 2-1 3 5 1 3 3 19 4 5 2 9 1 13 3 5 2 1 3 12 6 1 2h108l7 1v1h-159v-1l13-2 5-1v-2l-6-1-8-3-9-4-9-2-24-12-2-3 5-3 18-3z" fill="#2A3E4D"/>
<path transform="translate(460,650)" d="m0 0h12v52h13l1-2v13h-8l-6-1 1-7h-2l-3 3-5-1-4-2v-2l-5 1v2l-4-1-3-2-1 10h-1v-31h1v19h14z" fill="#455B6A"/>
<path transform="translate(538,701)" d="m0 0h68v12h-67v-7h-1z" fill="#455C6B"/>
<path transform="translate(394,463)" d="m0 0h2l1 41 3 5 3 2 11 1v11l-16-2-7-4-5-7-1-3v-38l8-5z" fill="#EBF9FB"/>
<path transform="translate(731,488)" d="m0 0 2 1-1 35-2 5-5 1-6-2-4-2-4-7-3-1-2-7-2-3v-9l3-9h4v3h2l2 6 1 5h5 2l5-1z" fill="#283C4B"/>
<path transform="translate(375,362)" d="m0 0h8l5 3 4 5 1 9-3 5-5 4h-12l-6-6-1-3v-8l4-6z" fill="#F1FAFC"/>
<path transform="translate(640,359)" d="m0 0h7l7 5 2 4v8l-4 6-5 3h-8l-7-6-2-5 1-7 5-6z" fill="#E8F9FB"/>
<path transform="translate(448,556)" d="m0 0h9l6 5 1 2v9l-5 5-3 2h-8l-7-6-1-8 4-7z" fill="#6AE6F5"/>
<path transform="translate(615,271)" d="m0 0h74l7 2 1 2-14-2-14 1h-18l-2-1h-6l-2 1-33 2h-50l-6 1h-35l4-2 22-1 6-1 24-1h16l20 1z" fill="#293D4C"/>
<path transform="translate(560,542)" d="m0 0h1v19h31l1-2v14l-31 1-2 1z" fill="#41697A"/>
<path transform="translate(727,755)" d="m0 0 8 3 4 2 1 3-1 3h-3l1 8-5 5v2l-5-1h-3l-8-3-2-4 1-5 10-7 2-4z" fill="#22CFE9"/>
<path transform="translate(349,624)" d="m0 0h26l4 1h10l-4 3-4 2-3 1 3 2 4 1 7 1 1-2 2 3h-28l-5-2v2h-11l-1-7z" fill="#2C404F"/>
<path transform="translate(375,436)" d="m0 0h7l5 3 3 5-1 7-4 4-3 1h-7l-5-4-1-3v-7l5-5z" fill="#F2FAFC"/>
<path transform="translate(369,650)" d="m0 0h13v24l-2 3-4-2-6-6-1 2z" fill="#445A69"/>
<path transform="translate(376,554)" d="m0 0 7 1 4 4 1 5-3 6-3 2h-8l-5-6 1-6 4-5z" fill="#69E6F5"/>
<path transform="translate(652,602)" d="m0 0 8 1 4 4v8l-5 4-4 1-5-2-4-5 1-6z" fill="#69E6F5"/>
<path transform="translate(524,397)" d="m0 0h5l1 1v8l-3 2h-4l1 4 7 1v1h-30v-1l13-2v-4-2l-2-1 2-3h3l1-2z" fill="#293D4C"/>
<path transform="translate(647,664)" d="m0 0 5 2 3 3 1 7-6 5h-6l-5-5v-6l4-5z" fill="#67E5F4"/>
<path transform="translate(593,621)" d="m0 0h38v1h-25l1 14h-11l-3-1z" fill="#416B7B"/>
<path transform="translate(580,377)" d="m0 0 2 2-1 19-1 8-2 8h-4l-5-11-1-5 2-6 4 1 4-1v-5l1-4z" fill="#293D4C"/>
<path transform="translate(647,538)" d="m0 0 4 1 8 8-1 3-8 7-4-2-6-7 2-4z" fill="#E5F8FA"/>
<path transform="translate(642,440)" d="m0 0 4 1 8 8-2 4-6 6-4-2-7-7 2-4z" fill="#F2FBFC"/>
<path transform="translate(453,703)" d="m0 0h6l1 2 6 2 4-2 1-2 3 2-1 6 5 1v1h-30v-9l5 1z" fill="#2B3F4E"/>
<path transform="translate(491,275)" d="m0 0h19l7 2v1l-50 1h-44v-1l29-2h30z" fill="#293D4C"/>
<path transform="translate(378,368)" d="m0 0 5 1 3 4-1 6-4 3-5-1-3-3 1-7z" fill="#1C303E"/>
<path transform="translate(592,559)" d="m0 0h1v14h-9l-5-1-4-2 3-1 2-1 7-7h5z" fill="#3C7A8C"/>
<path transform="translate(642,366)" d="m0 0 4 1 3 3-1 5-3 3-5-2-2-2 1-5z" fill="#1E3341"/>
<path transform="translate(445,682)" d="m0 0h1v19l13 1-4 2-1 2-4-1-3-2-1 10h-1z" fill="#465C6B"/>
<path transform="translate(488,391)" d="m0 0h2l2 12-4 1-4-3v-3h2z" fill="#293D4C"/>
<path transform="translate(402,279)" d="m0 0 1 2-24 2-5 1-3-2 11-2z" fill="#293D4C"/>
<path transform="translate(420,311)" d="m0 0 8 1 3 3-2 1h-7l-4-2v-2z" fill="#162836"/>
<path transform="translate(584,564)" d="m0 0 2 2 1 5-6 1-5-1-1-2h5l2-4z" fill="#23C9E2"/>
<path transform="translate(370,669)" d="m0 0 3 1 2 3 3 2-1 3-5-2-3-3z" fill="#2C404F"/>
<path transform="translate(208,482)" d="m0 0 3 1v10h-3z" fill="#22CFE9"/>
</svg>
