<?xml version="1.0" encoding="UTF-8"?>
<svg version="1.1" xmlns="http://www.w3.org/2000/svg" width="560" height="100">
<path d="M0 0 C4.23160079 0.03632275 6.90742162 0.44654716 10.25 3.25 C10.58 3.91 10.91 4.57 11.25 5.25 C11.53875 4.610625 11.8275 3.97125 12.125 3.3125 C13.25 1.25 13.25 1.25 15.25 0.25 C17.03859511 0.12792129 18.83228381 0.07451552 20.625 0.0625 C22.05972656 0.04123047 22.05972656 0.04123047 23.5234375 0.01953125 C26.36624061 0.2598255 27.91975543 0.62293496 30.25 2.25 C32.48568711 5.42776909 32.46571532 8.18995645 32.375 12 C32.35695313 12.98484375 32.33890625 13.9696875 32.3203125 14.984375 C32.29710937 15.73203125 32.27390625 16.4796875 32.25 17.25 C33.36375 16.75306641 33.36375 16.75306641 34.5 16.24609375 C38.35815518 14.84860856 41.35618346 15.0124915 45.25 16.25 C48.24021018 18.72017362 50.10373748 21.03060622 52.25 24.25 C52.65089844 23.85167969 53.05179688 23.45335938 53.46484375 23.04296875 C59.01152463 17.8736131 64.32052348 15.58874798 71.875 14.9375 C78.77626549 15.57650606 82.63907914 16.98037616 87.25 22.25 C88.24 23.24 88.24 23.24 89.25 24.25 C89.65089844 23.85167969 90.05179688 23.45335938 90.46484375 23.04296875 C96.01152463 17.8736131 101.32052348 15.58874798 108.875 14.9375 C114.71358519 15.47810974 119.37024266 16.99682844 124.25 20.25 C124.68570312 19.71890625 125.12140625 19.1878125 125.5703125 18.640625 C134.00881792 8.63131554 134.00881792 8.63131554 140.4375 7.875 C143.25 8.25 143.25 8.25 146.25 10.25 C146.9375 12.875 146.9375 12.875 147.25 15.25 C148.57 15.25 149.89 15.25 151.25 15.25 C151.38277344 14.32316406 151.51554687 13.39632812 151.65234375 12.44140625 C151.82894531 11.24386719 152.00554687 10.04632813 152.1875 8.8125 C152.44853516 7.02005859 152.44853516 7.02005859 152.71484375 5.19140625 C153.25 2.25 153.25 2.25 154.25 1.25 C167.92040804 -0.27944588 167.92040804 -0.27944588 172.43359375 2.68359375 C173.99996053 4.79330727 175.11453407 6.8806611 176.25 9.25 C177.36509013 11.08937764 178.49013214 12.92275862 179.625 14.75 C180.50448289 16.24737599 181.38113752 17.74643657 182.25 19.25 C182.21519531 18.27417969 182.18039062 17.29835938 182.14453125 16.29296875 C182.11746094 15.02066406 182.09039062 13.74835937 182.0625 12.4375 C182.02769531 11.17292969 181.99289062 9.90835937 181.95703125 8.60546875 C182.25 5.25 182.25 5.25 183.57421875 3.36328125 C186.67224744 1.30515031 189.62503455 1.01525164 193.25 0.875 C194.11625 0.82601563 194.9825 0.77703125 195.875 0.7265625 C198.25 1.25 198.25 1.25 200.08203125 3.19140625 C201.7111728 7.45768664 201.33811111 11.07069227 200.9375 15.5625 C200.8456543 16.81643555 200.8456543 16.81643555 200.75195312 18.09570312 C200.59947511 20.14829176 200.42674275 22.19935823 200.25 24.25 C200.69480713 23.82001709 201.13961426 23.39003418 201.59790039 22.94702148 C206.99220268 17.82446411 212.32992728 15.6776443 219.6875 14.875 C222.88363824 15.2114356 225.1347744 15.87318241 228.125 16.9375 C232.95600334 18.52587534 235.47590317 17.85335509 240.078125 15.9765625 C243.8723257 14.70727953 246.40642838 15.18970438 250.25 16.25 C252.8897129 19.31547304 253.68386644 22.28706511 254.25 26.25 C254.12625 25.3425 254.0025 24.435 253.875 23.5 C254.25 20.25 254.25 20.25 256.6875 17.9375 C260.94128834 15.92254763 264.54199958 15.03324123 269.25 15.25 C272.25 16.375 272.25 16.375 274.25 18.25 C275.0625 20.9375 275.0625 20.9375 275.25 23.25 C275.74628906 22.84007813 276.24257813 22.43015625 276.75390625 22.0078125 C283.30831069 16.80906287 288.75681523 14.78673538 297.25 15.25 C298.19875 15.435625 299.1475 15.62125 300.125 15.8125 C303.71062546 16.31448756 306.65984823 15.85890516 310.19921875 15.2109375 C312.25 15.25 312.25 15.25 314.02734375 16.515625 C315.76093715 18.97477986 315.24233209 20.91456066 314.76953125 23.77734375 C314.17711246 26.59690086 313.49560123 29.3885365 312.8125 32.1875 C311.33544887 38.3262686 310.53235593 44.41927141 309.89672852 50.68920898 C309.34201878 56.06596245 309.34201878 56.06596245 308.25 58.25 C306.12506859 58.27693575 304.00004088 58.29636628 301.875 58.3125 C300.69164062 58.32410156 299.50828125 58.33570313 298.2890625 58.34765625 C295.25 58.25 295.25 58.25 293.25 57.25 C293.25 56.59 293.25 55.93 293.25 55.25 C292.6209375 55.55035156 291.991875 55.85070312 291.34375 56.16015625 C285.44111317 58.78256267 281.51907911 60.23520838 275.25 58.25 C271.61534431 55.14842714 269.27738925 51.54162304 267.25 47.25 C266.84910156 47.78109375 266.44820313 48.3121875 266.03515625 48.859375 C261.82314536 54.09334771 257.88319464 57.61738927 251.25 59.25 C247.16071353 59.53632347 244.04761226 58.69311792 240.4375 56.6875 C237.50395139 53.41868869 236.57261316 50.42667315 235.25 46.25 C234.50556641 47.17232422 234.50556641 47.17232422 233.74609375 48.11328125 C226.01713498 57.30883561 226.01713498 57.30883561 220.25 58.25 C212.16170464 58.9417621 205.87649346 59.40620832 199.25 54.25 C198.693125 54.53875 198.13625 54.8275 197.5625 55.125 C192.98689684 57.35096911 189.58594234 58.49905885 184.4375 58.375 C183.46167969 58.35695312 182.48585938 58.33890625 181.48046875 58.3203125 C180.74441406 58.29710937 180.00835937 58.27390625 179.25 58.25 C179.03085937 57.72792969 178.81171875 57.20585938 178.5859375 56.66796875 C175.18615701 48.77660834 171.41540763 41.13721018 166.25 34.25 C166.25 41.18 166.25 48.11 166.25 55.25 C159.41894977 58.66552511 159.41894977 58.66552511 155.0625 58.625 C153.80373047 58.63660156 153.80373047 58.63660156 152.51953125 58.6484375 C149.82850475 58.17600255 148.94514791 57.33718537 147.25 55.25 C146.445625 55.724375 145.64125 56.19875 144.8125 56.6875 C139.72867692 58.91724697 134.90822812 59.84071736 129.4375 58.625 C125.67477849 56.25986076 123.64424674 53.43274021 122.25 49.25 C121.13625 50.3946875 121.13625 50.3946875 120 51.5625 C113.81673665 57.60523464 109.58594903 58.54125754 100.95629883 58.5690918 C95.47362359 58.4661214 92.39416982 57.81591357 88.25 54.25 C86.8125 51.5 86.8125 51.5 86.25 49.25 C85.73050781 49.73210937 85.21101562 50.21421875 84.67578125 50.7109375 C83.97839844 51.34257813 83.28101563 51.97421875 82.5625 52.625 C81.87800781 53.25148437 81.19351563 53.87796875 80.48828125 54.5234375 C73.94545538 59.57043407 66.11177411 58.93843644 58.25 58.25 C53.24918579 56.74078201 50.19442816 53.48997656 47.25 49.25 C46.73050781 49.73210937 46.21101562 50.21421875 45.67578125 50.7109375 C44.97839844 51.34257813 44.28101563 51.97421875 43.5625 52.625 C42.87800781 53.25148437 42.19351563 53.87796875 41.48828125 54.5234375 C35.56166695 59.09510159 28.51060261 59.31873943 21.25 59.25 C15.83622733 58.31255019 11.74339062 56.65470992 8.25 52.25 C7.26 55.22 7.26 55.22 6.25 58.25 C4.00059705 58.33119503 1.75035129 58.38927819 -0.5 58.4375 C-1.75296875 58.47230469 -3.0059375 58.50710937 -4.296875 58.54296875 C-7.89109357 58.23802939 -9.19725126 57.70605371 -11.75 55.25 C-12.41 55.724375 -13.07 56.19875 -13.75 56.6875 C-19.01685614 59.43065424 -22.99208851 59.76872798 -28.5625 58.125 C-31.92486734 56.14713686 -33.14211076 54.74952364 -34.75 51.25 C-35.41 53.56 -36.07 55.87 -36.75 58.25 C-38.87493141 58.27693575 -40.99995912 58.29636628 -43.125 58.3125 C-44.30835938 58.32410156 -45.49171875 58.33570313 -46.7109375 58.34765625 C-49.75 58.25 -49.75 58.25 -51.75 57.25 C-51.75 56.59 -51.75 55.93 -51.75 55.25 C-52.3790625 55.55035156 -53.008125 55.85070312 -53.65625 56.16015625 C-59.57904769 58.79151968 -63.43505645 60.06956 -69.75 58.25 C-72.75 55.6875 -72.75 55.6875 -74.75 53.25 C-75.100625 54.0646875 -75.45125 54.879375 -75.8125 55.71875 C-77.75 58.25 -77.75 58.25 -81 58.84375 C-82.2375 58.8128125 -83.475 58.781875 -84.75 58.75 C-85.9875 58.7396875 -87.225 58.729375 -88.5 58.71875 C-91.75 58.25 -91.75 58.25 -93.61328125 56.85546875 C-94.88195547 55.0636299 -95.85250718 53.25209938 -96.75 51.25 C-97.36875 52.075 -97.9875 52.9 -98.625 53.75 C-101.22335687 56.38568959 -103.22216868 56.63943643 -106.875 56.6875 C-110.5275634 56.59313286 -111.59905867 56.35062755 -114.75 54.25 C-115.513125 54.91 -116.27625 55.57 -117.0625 56.25 C-121.42084442 59.18691794 -126.69361133 59.1670901 -131.75 58.25 C-137.12637067 50.185444 -133.34545747 34.67104552 -132.15087891 25.34887695 C-131.87136256 23.1590024 -131.60864414 20.96754313 -131.34765625 18.77539062 C-130.60027031 12.7207953 -129.86248293 7.01207078 -127.75 1.25 C-124.81225537 1.19609643 -121.87549768 1.1563745 -118.9375 1.125 C-117.68743164 1.09986328 -117.68743164 1.09986328 -116.41210938 1.07421875 C-115.60966797 1.06777344 -114.80722656 1.06132812 -113.98046875 1.0546875 C-113.24207764 1.04421387 -112.50368652 1.03374023 -111.74291992 1.02294922 C-109.75 1.25 -109.75 1.25 -106.75 3.25 C-105.88124083 5.73133891 -105.18108868 8.08325042 -104.5625 10.625 C-104.38525391 11.29789063 -104.20800781 11.97078125 -104.02539062 12.6640625 C-103.17548525 15.99805425 -102.75 18.78478629 -102.75 22.25 C-102.09 22.25 -101.43 22.25 -100.75 22.25 C-100.51216797 21.30640625 -100.51216797 21.30640625 -100.26953125 20.34375 C-98.41729699 13.54881325 -96.30340205 6.96509946 -90.53125 2.5546875 C-87.06975753 0.9308975 -84.43827614 0.81654806 -80.625 0.8125 C-78.79582031 0.78349609 -78.79582031 0.78349609 -76.9296875 0.75390625 C-73.75 1.25 -73.75 1.25 -72.0559082 2.96948242 C-70.49656702 5.69257196 -70.46738825 7.12742475 -70.67578125 10.234375 C-70.73056641 11.16894531 -70.78535156 12.10351562 -70.84179688 13.06640625 C-70.95104492 14.51853516 -70.95104492 14.51853516 -71.0625 16 C-71.12373047 16.98355469 -71.18496094 17.96710937 -71.24804688 18.98046875 C-71.40104849 21.40495584 -71.56885034 23.82748027 -71.75 26.25 C-71.00878906 25.30769531 -70.26757812 24.36539063 -69.50390625 23.39453125 C-67.43383495 20.91321648 -65.67160518 19.28420353 -62.6875 17.9375 C-62.03652344 17.63199219 -61.38554687 17.32648437 -60.71484375 17.01171875 C-55.45397927 14.97221861 -50.43841976 14.72400483 -44.875 15.8125 C-41.28937454 16.31448756 -38.34015177 15.85890516 -34.80078125 15.2109375 C-32.75 15.25 -32.75 15.25 -30.9921875 16.52734375 C-29.16661936 19.05902786 -29.54793111 21.21896669 -29.75 24.25 C-29.34910156 23.85167969 -28.94820313 23.45335938 -28.53515625 23.04296875 C-23.05855514 17.93892554 -17.70191015 15.45799527 -10.1875 15.0625 C-9.383125 15.124375 -8.57875 15.18625 -7.75 15.25 C-7.77320313 14.65832031 -7.79640625 14.06664062 -7.8203125 13.45703125 C-7.92371429 8.92950997 -7.92952152 5.35262874 -5.75 1.25 C-4.11069007 -0.38930993 -2.25256326 0.03998633 0 0 Z M9.25 28.25 C10.25 31.25 10.25 31.25 10.25 31.25 Z M-55.75 29.25 C-56.08 31.89 -56.41 34.53 -56.75 37.25 C-54.85786631 34.86426621 -53.72608217 33.17824652 -52.75 30.25 C-53.74 29.92 -54.73 29.59 -55.75 29.25 Z M-14.75 29.25 C-15.41 32.55 -16.07 35.85 -16.75 39.25 C-13.64448334 36.14448334 -12.93676066 34.35801767 -11.75 30.25 C-12.74 29.92 -13.73 29.59 -14.75 29.25 Z M69.25 29.25 C67.10663839 32.7266338 67.03722374 35.46229195 67.125 39.5 C67.14304687 40.57765625 67.16109375 41.6553125 67.1796875 42.765625 C67.20289063 43.58546875 67.22609375 44.4053125 67.25 45.25 C69.9843066 42.5156934 70.20340665 40.48006445 70.34765625 36.671875 C70.33605469 35.79015625 70.32445312 34.9084375 70.3125 34 C70.29896484 32.66195312 70.29896484 32.66195312 70.28515625 31.296875 C70.27355469 30.62140625 70.26195312 29.9459375 70.25 29.25 C69.92 29.25 69.59 29.25 69.25 29.25 Z M106.25 29.25 C104.10663839 32.7266338 104.03722374 35.46229195 104.125 39.5 C104.14304687 40.57765625 104.16109375 41.6553125 104.1796875 42.765625 C104.20289063 43.58546875 104.22609375 44.4053125 104.25 45.25 C106.9843066 42.5156934 107.20340665 40.48006445 107.34765625 36.671875 C107.33605469 35.79015625 107.32445312 34.9084375 107.3125 34 C107.29896484 32.66195312 107.29896484 32.66195312 107.28515625 31.296875 C107.27355469 30.62140625 107.26195312 29.9459375 107.25 29.25 C106.92 29.25 106.59 29.25 106.25 29.25 Z M289.25 29.25 C288.92 31.89 288.59 34.53 288.25 37.25 C290.14213369 34.86426621 291.27391783 33.17824652 292.25 30.25 C291.26 29.92 290.27 29.59 289.25 29.25 Z M144.25 30.25 C143.92 34.54 143.59 38.83 143.25 43.25 C144.9 43.25 146.55 43.25 148.25 43.25 C150.12824891 41.37175109 149.64102397 38.21064724 149.8125 35.6875 C149.89628906 34.48996094 149.98007812 33.29242188 150.06640625 32.05859375 C150.12699219 31.13175781 150.18757813 30.20492187 150.25 29.25 C147.88619656 29.16915479 147.88619656 29.16915479 144.25 30.25 Z M216.25 30.25 C214.5005382 36.65215071 214.5005382 36.65215071 214.25 43.25 C215.24 43.745 215.24 43.745 216.25 44.25 C218.22094808 39.32262981 218.4299928 35.46979128 218.25 30.25 C217.59 30.25 216.93 30.25 216.25 30.25 Z M8.25 36.25 C9.25 40.25 9.25 40.25 9.25 40.25 Z M32.25 36.25 C31.59 37.36375 30.93 38.4775 30.25 39.625 C29.87875 40.25148438 29.5075 40.87796875 29.125 41.5234375 C28.09931652 43.22472667 28.09931652 43.22472667 28.25 45.25 C31.42888621 44.57494081 31.42888621 44.57494081 32.5 41.875 C33.53867655 39.1748898 33.53867655 39.1748898 32.25 36.25 Z M-57.75 37.25 C-56.75 39.25 -56.75 39.25 -56.75 39.25 Z M287.25 37.25 C288.25 39.25 288.25 39.25 288.25 39.25 Z M-116.75 45.25 C-115.75 47.25 -115.75 47.25 -115.75 47.25 Z " fill="#020808" transform="translate(236.75,20.75)"/>
<path d="M0 0 C1.44914001 -0.00269983 2.89827825 -0.00658632 4.34741211 -0.01159668 C7.37338639 -0.0174688 10.39888593 -0.00900369 13.42480469 0.00976562 C17.28490496 0.03255468 21.14389248 0.01941914 25.00395203 -0.00452423 C27.99304442 -0.01904485 30.98187716 -0.01434784 33.97097778 -0.00401306 C35.39340347 -0.001363 36.81585348 -0.00455434 38.23825073 -0.01393127 C53.88124816 -0.09444824 53.88124816 -0.09444824 59.0625 4.53125 C62.7905171 9.11421899 63.56593646 12.23373012 63.58007812 18.09375 C63.5870874 18.82625977 63.59409668 19.55876953 63.60131836 20.31347656 C63.61883397 22.71979382 63.60729954 25.12492209 63.59375 27.53125 C63.59644679 29.21224186 63.60033077 30.89323221 63.60534668 32.57421875 C63.61123298 36.09129743 63.60270709 39.6079688 63.58398438 43.125 C63.56119501 47.62427189 63.5743228 52.12258927 63.59827423 56.62182617 C63.61275591 60.09121847 63.60811544 63.56038594 63.59776306 67.02978516 C63.59510231 68.68831496 63.59834257 70.34686544 63.60768127 72.00537109 C63.61788646 74.32704421 63.60229279 76.64719011 63.58007812 78.96875 C63.57689575 80.28746094 63.57371338 81.60617188 63.57043457 82.96484375 C62.96447609 87.21951403 61.86229946 89.28662805 59.0625 92.53125 C54.6869204 95.41130801 51.23286704 95.90922959 46.05078125 95.91943359 C45.03979874 95.92731903 45.03979874 95.92731903 44.00839233 95.93536377 C41.79702058 95.94848717 39.58637813 95.9398536 37.375 95.9296875 C35.82853051 95.93171045 34.28206195 95.93462374 32.7355957 95.93838501 C29.50104655 95.94279797 26.26674665 95.93641069 23.03222656 95.92236328 C18.89628762 95.90527178 14.7609328 95.91511852 10.62501526 95.93308067 C7.43359007 95.94394648 4.24230224 95.94045941 1.0508728 95.9326973 C-0.47368439 95.93070301 -1.99825425 95.93312736 -3.52279663 95.94013596 C-5.65745857 95.94779691 -7.79118834 95.93608294 -9.92578125 95.91943359 C-11.13790283 95.91704681 -12.35002441 95.91466003 -13.59887695 95.91220093 C-17.47292401 95.47015587 -19.70825858 94.72855433 -22.9375 92.53125 C-26.55843684 87.56430145 -27.43980831 84.17862679 -27.45507812 77.94702148 C-27.4620874 77.22411926 -27.46909668 76.50121704 -27.47631836 75.75640869 C-27.49379645 73.38798599 -27.48231439 71.02077669 -27.46875 68.65234375 C-27.47144758 66.99520134 -27.47533221 65.33806048 -27.48034668 63.68092346 C-27.48622763 60.21689708 -27.47772335 56.75328471 -27.45898438 53.28930664 C-27.4361774 48.85843994 -27.44933727 44.42854158 -27.47327423 39.99771023 C-27.48775519 36.57893121 -27.48311608 33.16038035 -27.47276306 29.74159431 C-27.47010303 28.10818427 -27.47333999 26.47475322 -27.48268127 24.84136772 C-27.49288737 22.55571785 -27.47729257 20.27161887 -27.45507812 17.98608398 C-27.45189575 16.68815414 -27.44871338 15.3902243 -27.44543457 14.05296326 C-26.76314158 9.32235341 -24.88166155 6.26695113 -21.32202148 3.08898926 C-14.58445482 -0.47417485 -7.44447543 -0.04907654 0 0 Z " fill="#1E3443" transform="translate(30.9375,2.46875)"/>
<path d="M0 0 C1.44914001 -0.00269983 2.89827825 -0.00658632 4.34741211 -0.01159668 C7.37338639 -0.0174688 10.39888593 -0.00900369 13.42480469 0.00976562 C17.28490496 0.03255468 21.14389248 0.01941914 25.00395203 -0.00452423 C27.99304442 -0.01904485 30.98187716 -0.01434784 33.97097778 -0.00401306 C35.39340347 -0.001363 36.81585348 -0.00455434 38.23825073 -0.01393127 C53.88124816 -0.09444824 53.88124816 -0.09444824 59.0625 4.53125 C62.7905171 9.11421899 63.56593646 12.23373012 63.58007812 18.09375 C63.5870874 18.82625977 63.59409668 19.55876953 63.60131836 20.31347656 C63.61883397 22.71979382 63.60729954 25.12492209 63.59375 27.53125 C63.59644679 29.21224186 63.60033077 30.89323221 63.60534668 32.57421875 C63.61123298 36.09129743 63.60270709 39.6079688 63.58398438 43.125 C63.56119501 47.62427189 63.5743228 52.12258927 63.59827423 56.62182617 C63.61275591 60.09121847 63.60811544 63.56038594 63.59776306 67.02978516 C63.59510231 68.68831496 63.59834257 70.34686544 63.60768127 72.00537109 C63.61788646 74.32704421 63.60229279 76.64719011 63.58007812 78.96875 C63.57689575 80.28746094 63.57371338 81.60617188 63.57043457 82.96484375 C62.96447609 87.21951403 61.86229946 89.28662805 59.0625 92.53125 C54.6869204 95.41130801 51.23286704 95.90922959 46.05078125 95.91943359 C45.03979874 95.92731903 45.03979874 95.92731903 44.00839233 95.93536377 C41.79702058 95.94848717 39.58637813 95.9398536 37.375 95.9296875 C35.82853051 95.93171045 34.28206195 95.93462374 32.7355957 95.93838501 C29.50104655 95.94279797 26.26674665 95.93641069 23.03222656 95.92236328 C18.89628762 95.90527178 14.7609328 95.91511852 10.62501526 95.93308067 C7.43359007 95.94394648 4.24230224 95.94045941 1.0508728 95.9326973 C-0.47368439 95.93070301 -1.99825425 95.93312736 -3.52279663 95.94013596 C-5.65745857 95.94779691 -7.79118834 95.93608294 -9.92578125 95.91943359 C-11.13790283 95.91704681 -12.35002441 95.91466003 -13.59887695 95.91220093 C-17.47292401 95.47015587 -19.70825858 94.72855433 -22.9375 92.53125 C-26.55843684 87.56430145 -27.43980831 84.17862679 -27.45507812 77.94702148 C-27.4620874 77.22411926 -27.46909668 76.50121704 -27.47631836 75.75640869 C-27.49379645 73.38798599 -27.48231439 71.02077669 -27.46875 68.65234375 C-27.47144758 66.99520134 -27.47533221 65.33806048 -27.48034668 63.68092346 C-27.48622763 60.21689708 -27.47772335 56.75328471 -27.45898438 53.28930664 C-27.4361774 48.85843994 -27.44933727 44.42854158 -27.47327423 39.99771023 C-27.48775519 36.57893121 -27.48311608 33.16038035 -27.47276306 29.74159431 C-27.47010303 28.10818427 -27.47333999 26.47475322 -27.48268127 24.84136772 C-27.49288737 22.55571785 -27.47729257 20.27161887 -27.45507812 17.98608398 C-27.45189575 16.68815414 -27.44871338 15.3902243 -27.44543457 14.05296326 C-26.76314158 9.32235341 -24.88166155 6.26695113 -21.32202148 3.08898926 C-14.58445482 -0.47417485 -7.44447543 -0.04907654 0 0 Z M-15.9375 15.53125 C-17.27592177 18.20809354 -17.07939968 20.28110421 -17.09863281 23.27856445 C-17.10824036 24.4835408 -17.1178479 25.68851715 -17.12774658 26.93000793 C-17.13199646 28.23830063 -17.13624634 29.54659332 -17.140625 30.89453125 C-17.14637745 32.24732973 -17.15213518 33.6001282 -17.15789795 34.95292664 C-17.16840851 37.79178243 -17.17425048 40.63060991 -17.17773438 43.46948242 C-17.18321261 47.10114637 -17.20722551 50.73243415 -17.23570633 54.36398029 C-17.25436454 57.15987731 -17.25954003 59.95568441 -17.26107025 62.75163841 C-17.26555764 64.73968726 -17.28419097 66.72768791 -17.30303955 68.71565247 C-17.30003845 69.9300853 -17.29703735 71.14451813 -17.29394531 72.39575195 C-17.29759094 73.46227493 -17.30123657 74.52879791 -17.30499268 75.62763977 C-16.87987406 78.98656045 -15.94694093 80.82637076 -13.9375 83.53125 C-10.56109958 85.78218361 -9.39894534 85.78751735 -5.44384766 85.8059082 C-3.75662094 85.82020622 -3.75662094 85.82020622 -2.03530884 85.83479309 C-0.2118544 85.83342598 -0.2118544 85.83342598 1.6484375 85.83203125 C2.89750885 85.83631638 4.1465802 85.8406015 5.4335022 85.84501648 C8.07820661 85.85076489 10.72252142 85.85218963 13.3671875 85.84692383 C16.74888764 85.84113655 20.13003876 85.85804237 23.51164818 85.8812685 C26.74474036 85.89958616 29.97780279 85.89581962 33.2109375 85.89453125 C34.42252533 85.903741 35.63411316 85.91295074 36.88241577 85.92243958 C38.0135379 85.91621078 39.14466003 85.90998199 40.31005859 85.90356445 C41.3025058 85.90419388 42.294953 85.9048233 43.31747437 85.9054718 C46.60247372 85.45763687 48.43253487 84.53579465 51.0625 82.53125 C53.33789696 79.33794683 53.33011171 76.42461604 53.36889648 72.57275391 C53.38488388 71.37115631 53.40087128 70.16955872 53.41734314 68.93154907 C53.42538719 66.98929947 53.42538719 66.98929947 53.43359375 65.0078125 C53.44256601 63.66026716 53.45168796 62.31272281 53.46095276 60.96517944 C53.47742427 58.14245182 53.48513947 55.31984255 53.48803711 52.49707031 C53.49341926 48.8899101 53.53109757 45.28387066 53.57678127 41.67702675 C53.60660675 38.89393101 53.61376182 36.11110341 53.61476326 33.32786179 C53.62098517 31.35474479 53.6504284 29.38174493 53.68028259 27.40884399 C53.82316796 20.076129 53.82316796 20.076129 50.65258789 13.73193359 C47.06786813 10.68615511 45.40455017 10.39941438 40.79003906 10.33837891 C39.68839417 10.32231598 38.58674927 10.30625305 37.45172119 10.28970337 C32.40629642 10.24529914 27.36100415 10.20418297 22.31542969 10.18115234 C19.65334893 10.16782894 16.99308406 10.13731798 14.33105469 10.09912109 C10.49650974 10.04436909 6.66300817 10.02247871 2.828125 10.0078125 C1.64043518 9.98514313 0.45274536 9.96247375 -0.77093506 9.93911743 C-7.61793993 9.95663069 -11.33489132 10.26276154 -15.9375 15.53125 Z " fill="#53DCED" transform="translate(30.9375,2.46875)"/>
<path d="M0 0 C1.20817383 0.00999023 2.41634766 0.01998047 3.66113281 0.03027344 C5.9558252 0.08489746 5.9558252 0.08489746 8.296875 0.140625 C15.598125 0.264375 15.598125 0.264375 23.046875 0.390625 C23.046875 10.620625 23.046875 20.850625 23.046875 31.390625 C24.696875 31.390625 26.346875 31.390625 28.046875 31.390625 C28.046875 30.400625 28.046875 29.410625 28.046875 28.390625 C31.676875 28.390625 35.306875 28.390625 39.046875 28.390625 C39.541875 26.905625 39.541875 26.905625 40.046875 25.390625 C39.304375 25.638125 39.304375 25.638125 38.546875 25.890625 C35.01243411 26.59751318 31.64996799 26.45067655 28.046875 26.390625 C28.046875 24.740625 28.046875 23.090625 28.046875 21.390625 C31.76286691 21.18976057 32.81895945 21.2386813 36.046875 23.390625 C36.706875 22.070625 37.366875 20.750625 38.046875 19.390625 C37.551875 19.885625 37.551875 19.885625 37.046875 20.390625 C36.056875 20.390625 35.066875 20.390625 34.046875 20.390625 C33.716875 20.060625 33.386875 19.730625 33.046875 19.390625 C31.396875 19.390625 29.746875 19.390625 28.046875 19.390625 C28.046875 13.120625 28.046875 6.850625 28.046875 0.390625 C30.356875 0.390625 32.666875 0.390625 35.046875 0.390625 C34.964375 1.15375 34.881875 1.916875 34.796875 2.703125 C34.75520833 5.53645833 34.75520833 5.53645833 37.046875 7.203125 C37.706875 7.595 38.366875 7.986875 39.046875 8.390625 C38.551875 7.99875 38.056875 7.606875 37.546875 7.203125 C35.59094357 4.83970785 35.80479527 3.37627497 36.046875 0.390625 C40.796875 1.140625 40.796875 1.140625 43.046875 3.390625 C43.31430054 5.62303162 43.31430054 5.62303162 43.33740234 8.43530273 C43.35016205 9.48656845 43.36292175 10.53783417 43.37606812 11.62095642 C43.37829376 12.76053299 43.38051941 13.90010956 43.3828125 15.07421875 C43.3894693 16.24066422 43.3961261 17.40710968 43.40298462 18.60890198 C43.41312463 21.07950255 43.41780122 23.55013059 43.41748047 26.02075195 C43.42185317 29.80921355 43.45815947 33.59651038 43.49609375 37.38476562 C43.50196156 39.781246 43.50593119 42.17773193 43.5078125 44.57421875 C43.52218353 45.71177109 43.53655457 46.84932343 43.55136108 48.02134705 C43.54520782 49.07576492 43.53905457 50.1301828 43.53271484 51.21655273 C43.53556488 52.1453978 43.53841492 53.07424286 43.54135132 54.03123474 C43.046875 56.390625 43.046875 56.390625 41.16397095 58.19569397 C38.65680449 59.61078855 37.15184346 59.70407949 34.296875 59.578125 C33.49765625 59.55105469 32.6984375 59.52398437 31.875 59.49609375 C31.27171875 59.46128906 30.6684375 59.42648438 30.046875 59.390625 C30.046875 57.740625 30.046875 56.090625 30.046875 54.390625 C26.746875 54.390625 23.446875 54.390625 20.046875 54.390625 C20.046875 56.040625 20.046875 57.690625 20.046875 59.390625 C17.406875 59.390625 14.766875 59.390625 12.046875 59.390625 C12.046875 56.090625 12.046875 52.790625 12.046875 49.390625 C13.036875 49.390625 14.026875 49.390625 15.046875 49.390625 C15.046875 51.040625 15.046875 52.690625 15.046875 54.390625 C15.706875 54.390625 16.366875 54.390625 17.046875 54.390625 C16.716875 52.080625 16.386875 49.770625 16.046875 47.390625 C8.126875 47.390625 0.206875 47.390625 -7.953125 47.390625 C-7.293125 50.360625 -6.633125 53.330625 -5.953125 56.390625 C-3.973125 55.895625 -3.973125 55.895625 -1.953125 55.390625 C-1.458125 52.420625 -1.458125 52.420625 -0.953125 49.390625 C0.036875 49.390625 1.026875 49.390625 2.046875 49.390625 C2.046875 50.710625 2.046875 52.030625 2.046875 53.390625 C2.706875 53.720625 3.366875 54.050625 4.046875 54.390625 C4.046875 52.740625 4.046875 51.090625 4.046875 49.390625 C4.706875 49.390625 5.366875 49.390625 6.046875 49.390625 C6.046875 52.690625 6.046875 55.990625 6.046875 59.390625 C3.96469138 59.49894669 1.88088371 59.57636041 -0.203125 59.640625 C-1.36328125 59.68703125 -2.5234375 59.7334375 -3.71875 59.78125 C-6.953125 59.390625 -6.953125 59.390625 -9.13085938 57.71875 C-11.39558021 54.82534461 -11.42111796 53.38629404 -11.34375 49.75 C-11.33085937 48.68007812 -11.31796875 47.61015625 -11.3046875 46.5078125 C-11.27117188 45.39664063 -11.23765625 44.28546875 -11.203125 43.140625 C-11.18507813 42.01398437 -11.16703125 40.88734375 -11.1484375 39.7265625 C-11.10132722 36.94705604 -11.03555861 34.1692716 -10.953125 31.390625 C-7.983125 31.060625 -5.013125 30.730625 -1.953125 30.390625 C-1.953125 27.750625 -1.953125 25.110625 -1.953125 22.390625 C-1.623125 22.390625 -1.293125 22.390625 -0.953125 22.390625 C-0.829375 23.36 -0.705625 24.329375 -0.578125 25.328125 C-0.371875 26.33875 -0.165625 27.349375 0.046875 28.390625 C0.706875 28.720625 1.366875 29.050625 2.046875 29.390625 C2.046875 30.050625 2.046875 30.710625 2.046875 31.390625 C6.666875 31.390625 11.286875 31.390625 16.046875 31.390625 C16.046875 38.32165948 16.046875 38.32165948 13.796875 40.765625 C10.61940488 43.71284366 7.9177345 43.765625 3.671875 43.765625 C1.79516111 43.66973451 -0.08109586 43.55420036 -1.953125 43.390625 C-1.623125 40.750625 -1.293125 38.110625 -0.953125 35.390625 C-2.273125 35.060625 -3.593125 34.730625 -4.953125 34.390625 C-5.5066014 36.46616148 -5.953125 38.23428464 -5.953125 40.390625 C-5.293125 40.390625 -4.633125 40.390625 -3.953125 40.390625 C-3.953125 41.380625 -3.953125 42.370625 -3.953125 43.390625 C-5.273125 43.390625 -6.593125 43.390625 -7.953125 43.390625 C-7.953125 44.380625 -7.953125 45.370625 -7.953125 46.390625 C-4.20199602 46.33874959 -0.45316968 46.24367282 3.296875 46.140625 C4.36035156 46.12644531 5.42382812 46.11226562 6.51953125 46.09765625 C7.54433594 46.06542969 8.56914063 46.03320312 9.625 46 C10.56762695 45.97905273 11.51025391 45.95810547 12.48144531 45.93652344 C15.72913954 45.24544575 16.86605602 43.82061263 19.046875 41.390625 C21.1875 40.78125 21.1875 40.78125 23.296875 40.640625 C24.534375 40.558125 25.771875 40.475625 27.046875 40.390625 C27.046875 39.730625 27.046875 39.070625 27.046875 38.390625 C25.066875 38.390625 23.086875 38.390625 21.046875 38.390625 C21.046875 31.460625 21.046875 24.530625 21.046875 17.390625 C15.436875 17.390625 9.826875 17.390625 4.046875 17.390625 C4.046875 20.690625 4.046875 23.990625 4.046875 27.390625 C3.056875 27.390625 2.066875 27.390625 1.046875 27.390625 C0.386875 24.090625 -0.273125 20.790625 -0.953125 17.390625 C-2.603125 17.060625 -4.253125 16.730625 -5.953125 16.390625 C-6.11999948 18.80708282 -6.11999948 18.80708282 -5.953125 21.390625 C-5.293125 22.050625 -4.633125 22.710625 -3.953125 23.390625 C-3.953125 24.710625 -3.953125 26.030625 -3.953125 27.390625 C-4.613125 27.390625 -5.273125 27.390625 -5.953125 27.390625 C-6.283125 26.730625 -6.613125 26.070625 -6.953125 25.390625 C-7.283125 26.050625 -7.613125 26.710625 -7.953125 27.390625 C-8.943125 27.390625 -9.933125 27.390625 -10.953125 27.390625 C-11.06935439 23.64088594 -11.1403845 19.89161036 -11.203125 16.140625 C-11.23664062 15.07714844 -11.27015625 14.01367188 -11.3046875 12.91796875 C-11.31757813 11.89316406 -11.33046875 10.86835938 -11.34375 9.8125 C-11.36469727 8.86987305 -11.38564453 7.92724609 -11.40722656 6.95605469 C-10.25125662 0.42544601 -5.8863661 -0.09976892 0 0 Z " fill="#EFF1F1" transform="translate(32.953125,20.609375)"/>
<path d="M0 0 C2.12472576 -0.05386629 4.24983652 -0.09273071 6.375 -0.125 C7.55835937 -0.14820312 8.74171875 -0.17140625 9.9609375 -0.1953125 C13 0 13 0 15 2 C16.2760798 5.68004432 17.16001694 9.47779348 18.125 13.25 C18.54072266 14.80654297 18.54072266 14.80654297 18.96484375 16.39453125 C19.22652344 17.40386719 19.48820312 18.41320312 19.7578125 19.453125 C19.9964502 20.37254883 20.23508789 21.29197266 20.48095703 22.23925781 C21.04064083 25.21616486 21.0884297 27.97781752 21 31 C24.24720697 29.37639652 24.66601545 25.88636614 25.8125 22.625 C26.34647211 21.16445323 26.88294669 19.70481901 27.421875 18.24609375 C27.68806641 17.52534668 27.95425781 16.80459961 28.22851562 16.06201172 C29.28276138 13.24423968 30.3876809 10.45724756 31.5625 7.6875 C32.09037109 6.42486328 32.09037109 6.42486328 32.62890625 5.13671875 C34.39935097 2.37764963 36.02944632 1.35734789 39 0 C41.640625 -0.328125 41.640625 -0.328125 44.25 -0.25 C45.55710937 -0.22679688 45.55710937 -0.22679688 46.890625 -0.203125 C49 0 49 0 50 1 C49.80118237 12.17474988 48.24809029 23.35098774 46.9375 34.4375 C46.74901377 36.05529953 46.56086102 37.67313794 46.37304688 39.29101562 C45.91919037 43.1944674 45.46088482 47.09737209 45 51 C43.35425434 51.02688151 41.70838587 51.04634123 40.0625 51.0625 C38.68771484 51.07990234 38.68771484 51.07990234 37.28515625 51.09765625 C35 51 35 51 34 50 C33.74395441 46.73767795 33.81026922 43.45865486 33.8125 40.1875 C33.81185547 39.23657471 33.81121094 38.28564941 33.81054688 37.3059082 C33.86270029 30.34283452 34.42302535 23.80070318 36 17 C35.5978125 18.09699219 35.195625 19.19398437 34.78125 20.32421875 C32.82161575 25.54415997 30.67658923 30.67991582 28.5 35.8125 C28.10941406 36.75287109 27.71882813 37.69324219 27.31640625 38.66210938 C26.93355469 39.56380859 26.55070312 40.46550781 26.15625 41.39453125 C25.81400391 42.20768799 25.47175781 43.02084473 25.11914062 43.85864258 C23.96345447 46.06992601 22.96288345 47.46442966 21 49 C17.8125 49.1875 17.8125 49.1875 15 49 C12.53292174 42.06179458 10.81683174 35.14102208 9.3125 27.9375 C8.97508789 26.35291992 8.97508789 26.35291992 8.63085938 24.73632812 C8.08263137 22.15849004 7.53911564 19.57975631 7 17 C4.88485195 27.70551076 3.96076881 38.2002316 6 49 C2.50971852 50.59555725 -0.15402433 51.32049797 -4 51 C-5.81416958 49.18583042 -5.17090754 46.45494463 -5.18359375 44.01171875 C-5.12757503 36.2624622 -4.33761191 28.68867611 -3.34594727 21.00952148 C-3.05799597 18.77758895 -2.78294827 16.54433097 -2.50976562 14.31054688 C-1.15952209 3.47856626 -1.15952209 3.47856626 0 0 Z " fill="#3DE9F5" transform="translate(112,25)"/>
<path d="M0 0 C4.4205905 -1.34028542 7.61549654 -1.56412071 12 0 C16.55135026 4.74349169 19.56263256 10.81737895 22.65576172 16.56640625 C24.33478971 19.6060995 26.19385047 22.50624577 28.10180664 25.40625 C29 27 29 27 29 29 C29.66 29 30.32 29 31 29 C30.93099487 27.78884521 30.93099487 27.78884521 30.8605957 26.55322266 C30.66198939 22.91114496 30.4869529 19.26831104 30.3125 15.625 C30.23966797 14.35398437 30.16683594 13.08296875 30.09179688 11.7734375 C30.00961914 9.95585938 30.00961914 9.95585938 29.92578125 8.1015625 C29.86817627 6.98088379 29.81057129 5.86020508 29.7512207 4.70556641 C29.83331787 3.81272949 29.91541504 2.91989258 30 2 C33.45245824 -0.30163882 34.94738713 -0.34490322 39 0 C41 2 41 2 41.01171875 4.6875 C40.90472656 5.780625 40.79773438 6.87375 40.6875 8 C40.58824219 9.0725 40.48898437 10.145 40.38671875 11.25 C40.18069675 13.24778911 39.97292335 15.24542726 39.75268555 17.24169922 C39.04511778 23.86379077 38.69568299 30.47149725 38.4375 37.125 C38.37272461 38.7028125 38.37272461 38.7028125 38.30664062 40.3125 C38.20181491 42.87490627 38.09964645 45.43738799 38 48 C30.41964286 51.40178571 30.41964286 51.40178571 26 51 C25.79246094 50.48953125 25.58492188 49.9790625 25.37109375 49.453125 C20.79041578 38.64349164 14.36509948 28.82817792 8 19 C5.99939983 25.61615806 5.75753993 31.61503266 5.875 38.5 C5.88402344 39.51320312 5.89304687 40.52640625 5.90234375 41.5703125 C5.92570993 44.04712801 5.95846832 46.52343379 6 49 C2.78832601 50.73252349 0.68142974 51.2984943 -3 51 C-4.65401705 49.34598295 -4.17153047 47.47114218 -4.1875 45.1875 C-4.11182827 36.07446177 -3.00417103 27.04764833 -2 18 C-1.80720101 16.23698908 -1.61449153 14.47396837 -1.421875 12.7109375 C-0.95626563 8.47299208 -0.48092505 4.23623339 0 0 Z " fill="#3DE9F5" transform="translate(393,25)"/>
<path d="M0 0 C2.413125 -0.0928125 2.413125 -0.0928125 4.875 -0.1875 C5.77992188 -0.22230469 6.68484375 -0.25710937 7.6171875 -0.29296875 C8.79667969 -0.14794922 8.79667969 -0.14794922 10 0 C14.90454033 7.35681049 10.50774911 21.57111662 9.09375 29.9777832 C7.93852891 36.97416243 7.33527229 43.91303756 7 51 C5.54257537 51.08096803 4.08387193 51.13917774 2.625 51.1875 C1.81289062 51.22230469 1.00078125 51.25710937 0.1640625 51.29296875 C-0.55007812 51.19628906 -1.26421875 51.09960938 -2 51 C-4.12508244 47.81237635 -4.5020163 45.73487777 -5 42 C-5.38671875 42.48210937 -5.7734375 42.96421875 -6.171875 43.4609375 C-6.69265625 44.09257813 -7.2134375 44.72421875 -7.75 45.375 C-8.26046875 46.00148437 -8.7709375 46.62796875 -9.296875 47.2734375 C-12.32511493 50.34335045 -14.65733567 50.95648707 -18.9375 51.5 C-22.38691288 51.37104999 -23.04934738 50.96298946 -26 48.75 C-29.29082872 44.05834554 -28.64564262 38.4449194 -28 33 C-26.49817709 25.72477592 -22.27690926 20.41867112 -16.375 16.0625 C-11.20562857 14.43510529 -6.4043598 14.81985467 -1 15 C-0.67 10.05 -0.34 5.1 0 0 Z M-11 25 C-11.66 28.3 -12.32 31.6 -13 35 C-9.89448334 31.89448334 -9.18676066 30.10801767 -8 26 C-8.99 25.67 -9.98 25.34 -11 25 Z " fill="#3DE9F6" transform="translate(233,25)"/>
<path d="M0 0 C1.62463842 -0.05395478 3.24978541 -0.09277195 4.875 -0.125 C6.23238281 -0.15980469 6.23238281 -0.15980469 7.6171875 -0.1953125 C10 0 10 0 12 2 C12.76526147 9.80566704 10.65924813 17.41486569 9 25 C9.55429687 24.36191406 10.10859375 23.72382812 10.6796875 23.06640625 C11.40414063 22.24011719 12.12859375 21.41382812 12.875 20.5625 C13.59429687 19.73878906 14.31359375 18.91507813 15.0546875 18.06640625 C17.84850268 15.09867888 18.67663229 15.02607804 22.875 14.6875 C26.07613675 14.71654843 26.79001963 14.83847664 29.4375 16.875 C33.38379828 22.24196566 32.60837409 28.58441868 32 35 C29.96002448 41.19027054 26.30255574 45.35449293 21 49 C14.51475235 52.18080604 6.73391078 52.00441237 -0.24609375 50.5234375 C-1.875 49.75 -1.875 49.75 -4 47 C-5.221863 37.09625279 -3.19846422 26.59711293 -2 16.75 C-1.80665435 15.11856499 -1.61394159 13.48705484 -1.421875 11.85546875 C-0.95519606 7.90274321 -0.48000781 3.95112813 0 0 Z M16 32 C15.34 33.11375 14.68 34.2275 14 35.375 C13.62875 36.00148438 13.2575 36.62796875 12.875 37.2734375 C11.84931652 38.97472667 11.84931652 38.97472667 12 41 C15.17888621 40.32494081 15.17888621 40.32494081 16.25 37.625 C17.28867655 34.9248898 17.28867655 34.9248898 16 32 Z " fill="#3DE8F5" transform="translate(253,25)"/>
<path d="M0 0 C1.11761719 0.01804688 2.23523438 0.03609375 3.38671875 0.0546875 C6.1337003 0.10164445 8.87890047 0.16730532 11.625 0.25 C11.31491116 1.85463449 11.00183713 3.45869231 10.6875 5.0625 C10.51347656 5.95582031 10.33945312 6.84914063 10.16015625 7.76953125 C9.625 10.25 9.625 10.25 8.625 13.25 C8.42462074 14.76675969 8.26197033 16.28870509 8.125 17.8125 C8.0425 18.69164063 7.96 19.57078125 7.875 20.4765625 C7.7925 21.39179687 7.71 22.30703125 7.625 23.25 C7.46159297 25.06279678 7.29505841 26.87531509 7.125 28.6875 C7.0528125 29.49058594 6.980625 30.29367188 6.90625 31.12109375 C6.625 33.25 6.625 33.25 5.625 36.25 C-0.4296875 36.4453125 -0.4296875 36.4453125 -2.375 36.25 C-4.375 34.25 -4.375 34.25 -4.5 30.625 C-4.45875 29.51125 -4.4175 28.3975 -4.375 27.25 C-4.76171875 27.73210937 -5.1484375 28.21421875 -5.546875 28.7109375 C-6.06765625 29.34257813 -6.5884375 29.97421875 -7.125 30.625 C-7.63546875 31.25148438 -8.1459375 31.87796875 -8.671875 32.5234375 C-11.02339531 34.90731818 -13.09089513 36.06021867 -16.41015625 36.55078125 C-21.85042961 36.58222792 -21.85042961 36.58222792 -24.25 35.0625 C-27.63157541 29.61440628 -28.13506649 24.56512034 -27.375 18.25 C-25.67426839 12.43073995 -23.06873949 8.16144957 -18.375 4.25 C-17.58609375 3.55003906 -16.7971875 2.85007813 -15.984375 2.12890625 C-11.21383939 -1.01554356 -5.48280183 -0.16790677 0 0 Z M-10.375 10.25 C-10.705 12.89 -11.035 15.53 -11.375 18.25 C-9.48286631 15.86426621 -8.35108217 14.17824652 -7.375 11.25 C-8.365 10.92 -9.355 10.59 -10.375 10.25 Z M-12.375 18.25 C-11.375 20.25 -11.375 20.25 -11.375 20.25 Z " fill="#3CE5F1" transform="translate(536.375,39.75)"/>
<path d="M0 0 C1.11761719 0.01804688 2.23523438 0.03609375 3.38671875 0.0546875 C6.1337003 0.10164445 8.87890047 0.16730532 11.625 0.25 C11.31491116 1.85463449 11.00183713 3.45869231 10.6875 5.0625 C10.51347656 5.95582031 10.33945313 6.84914063 10.16015625 7.76953125 C9.625 10.25 9.625 10.25 8.625 13.25 C8.42462074 14.76675969 8.26197033 16.28870509 8.125 17.8125 C8.0425 18.69164063 7.96 19.57078125 7.875 20.4765625 C7.7925 21.39179687 7.71 22.30703125 7.625 23.25 C7.46159297 25.06279678 7.29505841 26.87531509 7.125 28.6875 C7.0528125 29.49058594 6.980625 30.29367188 6.90625 31.12109375 C6.625 33.25 6.625 33.25 5.625 36.25 C-0.4296875 36.4453125 -0.4296875 36.4453125 -2.375 36.25 C-4.375 34.25 -4.375 34.25 -4.5 30.625 C-4.45875 29.51125 -4.4175 28.3975 -4.375 27.25 C-4.76171875 27.73210937 -5.1484375 28.21421875 -5.546875 28.7109375 C-6.06765625 29.34257813 -6.5884375 29.97421875 -7.125 30.625 C-7.63546875 31.25148438 -8.1459375 31.87796875 -8.671875 32.5234375 C-11.02339531 34.90731818 -13.09089513 36.06021867 -16.41015625 36.55078125 C-21.85042961 36.58222792 -21.85042961 36.58222792 -24.25 35.0625 C-27.63157541 29.61440628 -28.13506649 24.56512034 -27.375 18.25 C-25.67426839 12.43073995 -23.06873949 8.16144957 -18.375 4.25 C-17.58609375 3.55003906 -16.7971875 2.85007813 -15.984375 2.12890625 C-11.21383939 -1.01554356 -5.48280183 -0.16790677 0 0 Z M-10.375 10.25 C-10.705 12.89 -11.035 15.53 -11.375 18.25 C-9.48286631 15.86426621 -8.35108217 14.17824652 -7.375 11.25 C-8.365 10.92 -9.355 10.59 -10.375 10.25 Z M-12.375 18.25 C-11.375 20.25 -11.375 20.25 -11.375 20.25 Z " fill="#3CE5F1" transform="translate(191.375,39.75)"/>
<path d="M0 0 C3.59435628 1.9703282 6.16244908 4.32489816 8 8 C8.97973356 16.06180755 7.67728085 22.32816797 3 29 C-0.67779998 32.95946956 -3.95921077 35.75523059 -9.5234375 36.203125 C-19.29978471 36.36383208 -19.29978471 36.36383208 -23 33 C-26.3137864 29.41752822 -27.32000915 26.51898675 -27.5625 21.75 C-27.25531118 14.69425688 -25.02996363 9.15594964 -20.12109375 4.04296875 C-14.06096882 -0.72254386 -7.47781517 -1.48018449 0 0 Z M-9 10 C-11.14336161 13.4766338 -11.21277626 16.21229195 -11.125 20.25 C-11.10695313 21.32765625 -11.08890625 22.4053125 -11.0703125 23.515625 C-11.04710937 24.33546875 -11.02390625 25.1553125 -11 26 C-8.2656934 23.2656934 -8.04659335 21.23006445 -7.90234375 17.421875 C-7.91394531 16.54015625 -7.92554688 15.6584375 -7.9375 14.75 C-7.95103516 13.41195312 -7.95103516 13.41195312 -7.96484375 12.046875 C-7.97644531 11.37140625 -7.98804688 10.6959375 -8 10 C-8.33 10 -8.66 10 -9 10 Z " fill="#3DE7F4" transform="translate(352,40)"/>
<path d="M0 0 C3.59435628 1.9703282 6.16244908 4.32489816 8 8 C8.97973356 16.06180755 7.67728085 22.32816797 3 29 C-0.67779998 32.95946956 -3.95921077 35.75523059 -9.5234375 36.203125 C-19.29978471 36.36383208 -19.29978471 36.36383208 -23 33 C-26.3137864 29.41752822 -27.32000915 26.51898675 -27.5625 21.75 C-27.25531118 14.69425688 -25.02996363 9.15594964 -20.12109375 4.04296875 C-14.06096882 -0.72254386 -7.47781517 -1.48018449 0 0 Z M-9 10 C-11.14336161 13.4766338 -11.21277626 16.21229195 -11.125 20.25 C-11.10695313 21.32765625 -11.08890625 22.4053125 -11.0703125 23.515625 C-11.04710937 24.33546875 -11.02390625 25.1553125 -11 26 C-8.2656934 23.2656934 -8.04659335 21.23006445 -7.90234375 17.421875 C-7.91394531 16.54015625 -7.92554688 15.6584375 -7.9375 14.75 C-7.95103516 13.41195312 -7.95103516 13.41195312 -7.96484375 12.046875 C-7.97644531 11.37140625 -7.98804688 10.6959375 -8 10 C-8.33 10 -8.66 10 -9 10 Z " fill="#3DE7F4" transform="translate(315,40)"/>
<path d="M0 0 C1.54300781 -0.03867187 1.54300781 -0.03867187 3.1171875 -0.078125 C7.43190687 0.39257166 9.89133668 2.00010427 12.90625 5.0546875 C15.48144617 9.69334215 14.75319429 15.13638107 14.125 20.25 C12.21855599 26.1419319 9.54895828 30.99562503 4.125 34.25 C-1.20315002 36.7119108 -6.08511576 36.94614444 -11.875 36.25 C-16.02341556 34.21218183 -18.21716132 32.5321304 -19.875 28.25 C-20.73748184 20.6681829 -20.71802947 13.44457258 -15.875 7.25 C-10.92376948 2.11872473 -7.23962189 0.10832352 0 0 Z M-2.875 11.25 C-4.6244618 17.65215071 -4.6244618 17.65215071 -4.875 24.25 C-3.885 24.745 -3.885 24.745 -2.875 25.25 C-0.90405192 20.32262981 -0.6950072 16.46979128 -0.875 11.25 C-1.535 11.25 -2.195 11.25 -2.875 11.25 Z " fill="#3DEAF6" transform="translate(455.875,39.75)"/>
<path d="M0 0 C0.33 0 0.66 0 1 0 C1.12375 0.969375 1.2475 1.93875 1.375 2.9375 C1.58125 3.948125 1.7875 4.95875 2 6 C2.66 6.33 3.32 6.66 4 7 C4 7.66 4 8.32 4 9 C8.62 9 13.24 9 18 9 C18 15.93103448 18 15.93103448 15.75 18.375 C12.57252988 21.32221866 9.8708595 21.375 5.625 21.375 C3.74828611 21.27910951 1.87202914 21.16357536 0 21 C0.33 18.36 0.66 15.72 1 13 C-0.32 12.67 -1.64 12.34 -3 12 C-3.5534764 14.07553648 -4 15.84365964 -4 18 C-3.34 18 -2.68 18 -2 18 C-2 18.99 -2 19.98 -2 21 C-3.32 21 -4.64 21 -6 21 C-6 21.99 -6 22.98 -6 24 C-2.24887102 23.94812459 1.49995532 23.85304782 5.25 23.75 C6.31347656 23.73582031 7.37695312 23.72164062 8.47265625 23.70703125 C9.49746094 23.67480469 10.52226563 23.64257812 11.578125 23.609375 C12.99206543 23.5779541 12.99206543 23.5779541 14.43457031 23.54589844 C17.68226454 22.85482075 18.81918102 21.42998763 21 19 C23.140625 18.390625 23.140625 18.390625 25.25 18.25 C26.4875 18.1675 27.725 18.085 29 18 C29 17.34 29 16.68 29 16 C27.68 16 26.36 16 25 16 C25 14.35 25 12.7 25 11 C25.74765625 10.93941406 26.4953125 10.87882812 27.265625 10.81640625 C28.25046875 10.73261719 29.2353125 10.64882813 30.25 10.5625 C31.22453125 10.48128906 32.1990625 10.40007813 33.203125 10.31640625 C35.56461753 10.04925416 37.71901065 9.64628032 40 9 C40.66 10.32 41.32 11.64 42 13 C41.01 13.99 40.02 14.98 39 16 C36.03 15.01 33.06 14.02 30 13 C30 15.64 30 18.28 30 21 C31.98 21 33.96 21 36 21 C36.495 19.515 36.495 19.515 37 18 C38.98 18 40.96 18 43 18 C43 20.31 43 22.62 43 25 C38.78121808 25.19622241 35.82989106 24.80230168 32 23 C33.70625501 25.78388975 34.47626739 26.85384206 37.6875 27.75 C38.450625 27.8325 39.21375 27.915 40 28 C40.495 30.475 40.495 30.475 41 33 C38.525 33.495 38.525 33.495 36 34 C35.566875 33.0409375 35.566875 33.0409375 35.125 32.0625 C34.17176549 29.84793921 34.17176549 29.84793921 32 29 C32 29.99 32 30.98 32 32 C28.7 32 25.4 32 22 32 C22 33.65 22 35.3 22 37 C19.36 37 16.72 37 14 37 C14 33.7 14 30.4 14 27 C14.99 27 15.98 27 17 27 C17 28.65 17 30.3 17 32 C17.66 32 18.32 32 19 32 C18.67 29.69 18.34 27.38 18 25 C10.08 25 2.16 25 -6 25 C-5.34 27.97 -4.68 30.94 -4 34 C-2.02 33.505 -2.02 33.505 0 33 C0.33 31.02 0.66 29.04 1 27 C1.99 27 2.98 27 4 27 C4 28.32 4 29.64 4 31 C4.66 31.33 5.32 31.66 6 32 C6 30.35 6 28.7 6 27 C6.66 27 7.32 27 8 27 C8 30.3 8 33.6 8 37 C5.91781638 37.10832169 3.83400871 37.18573541 1.75 37.25 C0.58984375 37.29640625 -0.5703125 37.3428125 -1.765625 37.390625 C-5 37 -5 37 -7.17773438 35.328125 C-9.44245521 32.43471961 -9.46799296 30.99566904 -9.390625 27.359375 C-9.37773437 26.28945312 -9.36484375 25.21953125 -9.3515625 24.1171875 C-9.31804688 23.00601563 -9.28453125 21.89484375 -9.25 20.75 C-9.23195313 19.62335937 -9.21390625 18.49671875 -9.1953125 17.3359375 C-9.14820222 14.55643104 -9.08243361 11.7786466 -9 9 C-4.545 8.505 -4.545 8.505 0 8 C0 5.36 0 2.72 0 0 Z " fill="#253745" transform="translate(31,43)"/>
<path d="M0 0 C1.21236328 0.02707031 1.21236328 0.02707031 2.44921875 0.0546875 C3.37154297 0.08949219 3.37154297 0.08949219 4.3125 0.125 C5.90203348 6.71021012 6.95381855 13.2734179 7.84765625 19.98828125 C8.21041434 22.43613627 8.64881083 24.74629103 9.3125 27.125 C9.9634259 25.87764433 10.60801669 24.62698168 11.25 23.375 C11.60964844 22.67890625 11.96929687 21.9828125 12.33984375 21.265625 C14.69210708 16.0887563 14.25480559 11.50465636 13.95703125 5.90234375 C14.3125 3.125 14.3125 3.125 16.05859375 1.265625 C19.61528098 -0.53429298 22.36995395 -0.0721273 26.3125 0.125 C26.85835457 8.10054184 25.93393828 13.99424226 22.3125 21.125 C21.86519531 22.00671875 21.41789062 22.8884375 20.95703125 23.796875 C18.04890543 29.06736575 15.08746341 33.81501464 9.3125 36.125 C5.5499183 36.76570673 1.95853962 37.22235974 -1.328125 35.03125 C-5.20377872 29.59642525 -5.20668991 22.36745676 -5.75 15.9375 C-5.90483119 14.17293623 -6.06228634 12.40860027 -6.22265625 10.64453125 C-6.32139038 9.48594604 -6.32139038 9.48594604 -6.42211914 8.30395508 C-6.68116622 6.17700458 -7.12144153 4.18939676 -7.6875 2.125 C-4.48369983 -0.01086678 -3.66810033 -0.10632175 0 0 Z " fill="#3DE8F4" transform="translate(480.6875,39.875)"/>
<path d="M0 0 C2.31 0 4.62 0 7 0 C6.9175 0.763125 6.835 1.52625 6.75 2.3125 C6.70833333 5.14583333 6.70833333 5.14583333 9 6.8125 C9.66 7.204375 10.32 7.59625 11 8 C10.2575 7.4121875 10.2575 7.4121875 9.5 6.8125 C7.54406857 4.44908285 7.75792027 2.98564997 8 0 C12.75 0.75 12.75 0.75 15 3 C15.26742554 5.23240662 15.26742554 5.23240662 15.29052734 8.04467773 C15.3096669 9.62157631 15.3096669 9.62157631 15.32919312 11.23033142 C15.33141876 12.36990799 15.33364441 13.50948456 15.3359375 14.68359375 C15.3425943 15.85003922 15.3492511 17.01648468 15.35610962 18.21827698 C15.36624963 20.68887755 15.37092622 23.15950559 15.37060547 25.63012695 C15.37497817 29.41858855 15.41128447 33.20588538 15.44921875 36.99414062 C15.45508656 39.390621 15.45905619 41.78710693 15.4609375 44.18359375 C15.47530853 45.32114609 15.48967957 46.45869843 15.50448608 47.63072205 C15.49833282 48.68513992 15.49217957 49.7395578 15.48583984 50.82592773 C15.48868988 51.7547728 15.49153992 52.68361786 15.49447632 53.64060974 C15 56 15 56 13.11709595 57.80506897 C10.60992949 59.22016355 9.10496846 59.31345449 6.25 59.1875 C5.45078125 59.16042969 4.6515625 59.13335937 3.828125 59.10546875 C3.22484375 59.07066406 2.6215625 59.03585938 2 59 C2 56.36 2 53.72 2 51 C2.99 51.33 3.98 51.66 5 52 C5.33 52.99 5.66 53.98 6 55 C7.32 55 8.64 55 10 55 C9.67 53.35 9.34 51.7 9 50 C8.21625 49.9175 7.4325 49.835 6.625 49.75 C4 49 4 49 2.6875 46.9375 C2.460625 46.298125 2.23375 45.65875 2 45 C2.70125 45.144375 3.4025 45.28875 4.125 45.4375 C7.07556141 46.01478375 10.03270151 46.51695141 13 47 C13 44.69 13 42.38 13 40 C10.02934491 40.34227572 10.02934491 40.34227572 7 41 C6.67 41.66 6.34 42.32 6 43 C4.02 43 2.04 43 0 43 C0 40.36 0 37.72 0 35 C3.62528568 34.79859524 5.86501708 35.14223235 9 37 C10.21690533 35.23470405 10.21690533 35.23470405 11 33 C10.21690533 30.76529595 10.21690533 30.76529595 9 29 C9.66 28.67 10.32 28.34 11 28 C11.33 27.01 11.66 26.02 12 25 C11.2575 25.2475 11.2575 25.2475 10.5 25.5 C6.96555911 26.20688818 3.60309299 26.06005155 0 26 C0 24.35 0 22.7 0 21 C3.71599191 20.79913557 4.77208445 20.8480563 8 23 C8.66 21.68 9.32 20.36 10 19 C9.67 19.33 9.34 19.66 9 20 C8.01 20 7.02 20 6 20 C5.67 19.67 5.34 19.34 5 19 C3.35 19 1.7 19 0 19 C0 12.73 0 6.46 0 0 Z " fill="#F4F5F5" transform="translate(61,21)"/>
<path d="M0 0 C0 2.64 0 5.28 0 8 C2.64 8 5.28 8 8 8 C7.34 9.98 6.68 11.96 6 14 C3.69 14 1.38 14 -1 14 C-1.66 20.93 -2.32 27.86 -3 35 C-0.36 34.67 2.28 34.34 5 34 C4.45712148 37.80014965 2.88535357 39.53896313 0 42 C-2.76047543 42.92015848 -4.63362269 43.19267245 -7.5 43.25 C-8.2734375 43.27578125 -9.046875 43.3015625 -9.84375 43.328125 C-12 43 -12 43 -13.7578125 41.7109375 C-16.39162496 38.08323354 -15.31407015 33.125208 -14.69238281 28.91845703 C-13.88156249 23.92903905 -12.95730203 18.96315518 -12 14 C-12.99 14 -13.98 14 -15 14 C-14.51612749 9.45966295 -12.9493049 7.38150804 -9.75 4.1875 C-8.98171875 3.39730469 -8.2134375 2.60710938 -7.421875 1.79296875 C-4.65501442 -0.25540062 -3.35964787 -0.39910711 0 0 Z " fill="#3DE9F6" transform="translate(379,33)"/>
<path d="M0 0 C1.65 0 3.3 0 5 0 C6.42258812 3.82320557 7.24042276 6.91281305 7 11 C7.99 11 8.98 11 10 11 C10 7.7 10 4.4 10 1 C15.61 1 21.22 1 27 1 C27 7.93 27 14.86 27 22 C28.98 22 30.96 22 33 22 C33 22.66 33 23.32 33 24 C32.38511719 24.18175781 31.77023438 24.36351563 31.13671875 24.55078125 C30.32847656 24.80214844 29.52023438 25.05351563 28.6875 25.3125 C27.88699219 25.55613281 27.08648437 25.79976562 26.26171875 26.05078125 C23.9539215 26.81878231 23.9539215 26.81878231 22.69140625 28.54101562 C20.32914806 30.5786679 18.75965629 30.3440827 15.67578125 30.29296875 C14.64775391 30.28330078 13.61972656 30.27363281 12.56054688 30.26367188 C10.95276367 30.2259668 10.95276367 30.2259668 9.3125 30.1875 C8.22904297 30.17396484 7.14558594 30.16042969 6.02929688 30.14648438 C3.35236595 30.11110643 0.67643162 30.06174189 -2 30 C-2 29.01 -2 28.02 -2 27 C-0.68 27 0.64 27 2 27 C2 26.01 2 25.02 2 24 C1.34 24 0.68 24 0 24 C-0.625 21.625 -0.625 21.625 -1 19 C-0.34 18.34 0.32 17.68 1 17 C3.125 17.375 3.125 17.375 5 18 C6.3542168 21.65638537 5.51496224 23.51327392 4 27 C12.04136695 26.98753816 12.04136695 26.98753816 19.1875 23.8125 C21.45749525 20.69790343 21.45749525 20.69790343 22 15 C17.38 15 12.76 15 8 15 C8 14.34 8 13.68 8 13 C6.68 13 5.36 13 4 13 C1.00541488 10.00541488 -0.28417788 6.15176827 -1 2 C-0.67 1.34 -0.34 0.68 0 0 Z M-1 8 C-0.67 8.99 -0.34 9.98 0 11 C0.66 11.33 1.32 11.66 2 12 C0.68 12.33 -0.64 12.66 -2 13 C-1.67 11.35 -1.34 9.7 -1 8 Z " fill="#213240" transform="translate(27,37)"/>
<path d="M0 0 C0.33 0 0.66 0 1 0 C1.12375 0.969375 1.2475 1.93875 1.375 2.9375 C1.58125 3.948125 1.7875 4.95875 2 6 C2.66 6.33 3.32 6.66 4 7 C4 7.66 4 8.32 4 9 C8.62 9 13.24 9 18 9 C18 15.93103448 18 15.93103448 15.75 18.375 C12.57252988 21.32221866 9.8708595 21.375 5.625 21.375 C3.74828611 21.27910951 1.87202914 21.16357536 0 21 C0.33 18.36 0.66 15.72 1 13 C-0.32 12.67 -1.64 12.34 -3 12 C-3.5534764 14.07553648 -4 15.84365964 -4 18 C-3.34 18 -2.68 18 -2 18 C-2 18.99 -2 19.98 -2 21 C-3.32 21 -4.64 21 -6 21 C-5.34 25.29 -4.68 29.58 -4 34 C-2.02 33.505 -2.02 33.505 0 33 C0.33 31.02 0.66 29.04 1 27 C1.99 27 2.98 27 4 27 C4 28.32 4 29.64 4 31 C4.66 31.33 5.32 31.66 6 32 C6 30.35 6 28.7 6 27 C6.66 27 7.32 27 8 27 C8 30.3 8 33.6 8 37 C5.91781638 37.10832169 3.83400871 37.18573541 1.75 37.25 C0.58984375 37.29640625 -0.5703125 37.3428125 -1.765625 37.390625 C-5 37 -5 37 -7.17773438 35.328125 C-9.44245521 32.43471961 -9.46799296 30.99566904 -9.390625 27.359375 C-9.37773437 26.28945312 -9.36484375 25.21953125 -9.3515625 24.1171875 C-9.31804688 23.00601563 -9.28453125 21.89484375 -9.25 20.75 C-9.23195313 19.62335937 -9.21390625 18.49671875 -9.1953125 17.3359375 C-9.14820222 14.55643104 -9.08243361 11.7786466 -9 9 C-4.545 8.505 -4.545 8.505 0 8 C0 5.36 0 2.72 0 0 Z " fill="#EFF0F1" transform="translate(31,43)"/>
<path d="M0 0 C1.9375 0.875 1.9375 0.875 3.9375 3.875 C4.93234918 10.93148839 4.21086521 17.99058976 -0.0625 23.875 C-2.8125 24.9375 -2.8125 24.9375 -5.0625 24.875 C-8.21732434 20.66856755 -8.74510314 16.98087148 -8.0625 11.875 C-5.1587963 -0.31265432 -5.1587963 -0.31265432 0 0 Z M-2.0625 5.875 C-3.8119618 12.27715071 -3.8119618 12.27715071 -4.0625 18.875 C-3.0725 19.37 -3.0725 19.37 -2.0625 19.875 C-0.09155192 14.94762981 0.1174928 11.09479128 -0.0625 5.875 C-0.7225 5.875 -1.3825 5.875 -2.0625 5.875 Z " fill="#040F10" transform="translate(455.0625,45.125)"/>
<path d="M0 0 C2.97 0 5.94 0 9 0 C8.34 0.391875 7.68 0.78375 7 1.1875 C4.70833333 2.85416667 4.70833333 2.85416667 4.75 5.6875 C4.8325 6.450625 4.915 7.21375 5 8 C5.66 8 6.32 8 7 8 C7 8.99 7 9.98 7 11 C5.68 11 4.36 11 3 11 C3.66 15.29 4.32 19.58 5 24 C6.32 23.67 7.64 23.34 9 23 C9.33 21.02 9.66 19.04 10 17 C10.99 17 11.98 17 13 17 C13 18.32 13 19.64 13 21 C13.66 21.33 14.32 21.66 15 22 C15 20.35 15 18.7 15 17 C15.66 17 16.32 17 17 17 C17 20.3 17 23.6 17 27 C14.91781638 27.10832169 12.83400871 27.18573541 10.75 27.25 C9.00976562 27.31960937 9.00976562 27.31960937 7.234375 27.390625 C3.29071314 26.91433734 2.41997137 26.07359707 0 23 C-0.45410156 20.43457031 -0.45410156 20.43457031 -0.390625 17.578125 C-0.37773437 16.55332031 -0.36484375 15.52851562 -0.3515625 14.47265625 C-0.31804688 13.40917969 -0.28453125 12.34570312 -0.25 11.25 C-0.23195313 10.17105469 -0.21390625 9.09210937 -0.1953125 7.98046875 C-0.14821415 5.31941212 -0.082456 2.66015746 0 0 Z " fill="#F2F3F3" transform="translate(22,53)"/>
<path d="M0 0 C2.93453261 0.36681658 3.86437246 0.86437246 6 3 C6.85744717 10.23819037 6.15149175 16.45459405 3 23 C2.34 23.66 1.68 24.32 1 25 C-3.55555556 24.44444444 -3.55555556 24.44444444 -5 23 C-5.52324929 15.49338522 -5.90055024 8.60093118 -2 2 C-1.34 1.34 -0.68 0.68 0 0 Z M1 5 C-1.14336161 8.4766338 -1.21277626 11.21229195 -1.125 15.25 C-1.10695313 16.32765625 -1.08890625 17.4053125 -1.0703125 18.515625 C-1.04710937 19.33546875 -1.02390625 20.1553125 -1 21 C1.7343066 18.2656934 1.95340665 16.23006445 2.09765625 12.421875 C2.08605469 11.54015625 2.07445312 10.6584375 2.0625 9.75 C2.04896484 8.41195312 2.04896484 8.41195312 2.03515625 7.046875 C2.02355469 6.37140625 2.01195312 5.6959375 2 5 C1.67 5 1.34 5 1 5 Z " fill="#020909" transform="translate(342,45)"/>
<path d="M0 0 C2.93453261 0.36681658 3.86437246 0.86437246 6 3 C6.85744717 10.23819037 6.15149175 16.45459405 3 23 C2.34 23.66 1.68 24.32 1 25 C-3.55555556 24.44444444 -3.55555556 24.44444444 -5 23 C-5.52324929 15.49338522 -5.90055024 8.60093118 -2 2 C-1.34 1.34 -0.68 0.68 0 0 Z M1 5 C-1.14336161 8.4766338 -1.21277626 11.21229195 -1.125 15.25 C-1.10695313 16.32765625 -1.08890625 17.4053125 -1.0703125 18.515625 C-1.04710937 19.33546875 -1.02390625 20.1553125 -1 21 C1.7343066 18.2656934 1.95340665 16.23006445 2.09765625 12.421875 C2.08605469 11.54015625 2.07445312 10.6584375 2.0625 9.75 C2.04896484 8.41195312 2.04896484 8.41195312 2.03515625 7.046875 C2.02355469 6.37140625 2.01195312 5.6959375 2 5 C1.67 5 1.34 5 1 5 Z " fill="#020909" transform="translate(305,45)"/>
<path d="M0 0 C0.99 0.33 1.98 0.66 3 1 C3.39932487 7.65541454 3.73389874 13.66398831 0.2734375 19.56640625 C-1 21 -1 21 -4 22.125 C-6.97333081 22.00111122 -8.53509995 21.61166542 -11 20 C-10.40985173 15.67756271 -8.84325785 12.60953537 -6.625 8.875 C-6.01914062 7.84117188 -5.41328125 6.80734375 -4.7890625 5.7421875 C-3.32115196 3.49224601 -1.99204841 1.7720676 0 0 Z M-2 9 C-2.66 10.11375 -3.32 11.2275 -4 12.375 C-4.37125 13.00148438 -4.7425 13.62796875 -5.125 14.2734375 C-6.15068348 15.97472667 -6.15068348 15.97472667 -6 18 C-2.82111379 17.32494081 -2.82111379 17.32494081 -1.75 14.625 C-0.71132345 11.9248898 -0.71132345 11.9248898 -2 9 Z " fill="#030C0D" transform="translate(271,48)"/>
<path d="M0 0 C3.73669693 0.41518855 6.73738338 1.11772118 10 3 C9.42870947 7.24607828 7.95658013 10.05384562 5.625 13.625 C5.01914063 14.56601562 4.41328125 15.50703125 3.7890625 16.4765625 C2.30001321 18.57683727 0.97350929 20.35724646 -1 22 C-1.66 22 -2.32 22 -3 22 C-5.23164399 17.53671202 -4.58185055 11.25600949 -3.36328125 6.53125 C-1.4917147 1.4917147 -1.4917147 1.4917147 0 0 Z M2 4 C1.34 7.3 0.68 10.6 0 14 C3.10551666 10.89448334 3.81323934 9.10801767 5 5 C4.01 4.67 3.02 4.34 2 4 Z " fill="#030C0D" transform="translate(220,46)"/>
<path d="M0 0 C2.31 0 4.62 0 7 0 C6.9175 0.721875 6.835 1.44375 6.75 2.1875 C6.71709747 5.16873976 6.71709747 5.16873976 9.125 7.1875 C11 10 11 10 10.8203125 12.5390625 C10.30195632 15.05983568 9.71068859 17.52699579 9 20 C8.01 20 7.02 20 6 20 C5.67 19.67 5.34 19.34 5 19 C3.35 19 1.7 19 0 19 C0 12.73 0 6.46 0 0 Z " fill="#596873" transform="translate(61,21)"/>
<path d="M0 0 C3.37991574 0.3557806 6.04288438 1.35715799 9 3 C7.22679629 9.73817409 3.44138437 17.44821525 -2 22 C-2.66 22 -3.32 22 -4 22 C-4.05425226 19.60385874 -4.09379027 17.20896147 -4.125 14.8125 C-4.14175781 14.13896484 -4.15851562 13.46542969 -4.17578125 12.77148438 C-4.21534972 8.71571594 -3.88770955 5.61040952 -2 2 C-1.34 1.34 -0.68 0.68 0 0 Z M1 4 C0.67 6.64 0.34 9.28 0 12 C1.89213369 9.61426621 3.02391783 7.92824652 4 5 C3.01 4.67 2.02 4.34 1 4 Z M-1 12 C0 14 0 14 0 14 Z " fill="#010505" transform="translate(525,46)"/>
<path d="M0 0 C3.37991574 0.3557806 6.04288438 1.35715799 9 3 C7.22679629 9.73817409 3.44138437 17.44821525 -2 22 C-2.66 22 -3.32 22 -4 22 C-4.05425226 19.60385874 -4.09379027 17.20896147 -4.125 14.8125 C-4.14175781 14.13896484 -4.15851563 13.46542969 -4.17578125 12.77148438 C-4.21534972 8.71571594 -3.88770955 5.61040952 -2 2 C-1.34 1.34 -0.68 0.68 0 0 Z M1 4 C0.67 6.64 0.34 9.28 0 12 C1.89213369 9.61426621 3.02391783 7.92824652 4 5 C3.01 4.67 2.02 4.34 1 4 Z M-1 12 C0 14 0 14 0 14 Z " fill="#010505" transform="translate(180,46)"/>
<path d="M0 0 C0.99 0 1.98 0 3 0 C2.67 2.31 2.34 4.62 2 7 C4.31 7 6.62 7 9 7 C8.67 4.69 8.34 2.38 8 0 C9.32 0 10.64 0 12 0 C11.67 2.31 11.34 4.62 11 7 C12.32 7 13.64 7 15 7 C15 5.02 15 3.04 15 1 C15.66 0.67 16.32 0.34 17 0 C17 3.96 17 7.92 17 12 C11.39 12 5.78 12 0 12 C-0.87890625 3.50390625 -0.87890625 3.50390625 -1 1 C-0.67 0.67 -0.34 0.34 0 0 Z " fill="#243746" transform="translate(37,24)"/>
<path d="M0 0 C5.61 0 11.22 0 17 0 C16.34 2.97 15.68 5.94 15 9 C13.68 9 12.36 9 11 9 C11.33 6.69 11.66 4.38 12 2 C10.68 2 9.36 2 8 2 C8.33 4.31 8.66 6.62 9 9 C6.69 9 4.38 9 2 9 C2.04125 7.88625 2.0825 6.7725 2.125 5.625 C2.41121859 1.95633975 2.41121859 1.95633975 0 0 Z " fill="#F6F7F7" transform="translate(37,22)"/>
<path d="M0 0 C0.33 0 0.66 0 1 0 C1 4.29 1 8.58 1 13 C-1.64 13 -4.28 13 -7 13 C-7 9.7 -7 6.4 -7 3 C-6.01 3 -5.02 3 -4 3 C-4 4.65 -4 6.3 -4 8 C-3.34 8 -2.68 8 -2 8 C-2.04125 7.05125 -2.0825 6.1025 -2.125 5.125 C-2 2 -2 2 0 0 Z " fill="#E5E8E9" transform="translate(52,67)"/>
<path d="M0 0 C2.5625 0.1875 2.5625 0.1875 4.5625 2.1875 C4.00694444 6.74305556 4.00694444 6.74305556 2.5625 8.1875 C0.125 8.4375 0.125 8.4375 -2.4375 8.1875 C-4.4375 5.1875 -4.4375 5.1875 -4.125 3.0625 C-3.12124957 0.32499884 -2.99341211 0.23026247 0 0 Z " fill="#606D76" transform="translate(29.4375,25.8125)"/>
<path d="M0 0 C2.97 0 5.94 0 9 0 C9.33 2.31 9.66 4.62 10 7 C9.34 7 8.68 7 8 7 C8 5.35 8 3.7 8 2 C7.01 2 6.02 2 5 2 C5 4.64 5 7.28 5 10 C3.35 10 1.7 10 0 10 C0 6.7 0 3.4 0 0 Z " fill="#172735" transform="translate(40,68)"/>
<path d="M0 0 C1.32 0 2.64 0 4 0 C4 1.65 4 3.3 4 5 C6.64 5 9.28 5 12 5 C11.67 6.32 11.34 7.64 11 9 C7.7 9 4.4 9 1 9 C0.67 6.03 0.34 3.06 0 0 Z " fill="#4B6271" transform="translate(52,66)"/>
<path d="M0 0 C1.65 0 3.3 0 5 0 C5.33 0.66 5.66 1.32 6 2 C5.34 2 4.68 2 4 2 C4 5.63 4 9.26 4 13 C1.00541488 10.00541488 -0.28417788 6.15176827 -1 2 C-0.67 1.34 -0.34 0.68 0 0 Z M-1 8 C-0.67 8.99 -0.34 9.98 0 11 C0.66 11.33 1.32 11.66 2 12 C0.68 12.33 -0.64 12.66 -2 13 C-1.67 11.35 -1.34 9.7 -1 8 Z " fill="#44515B" transform="translate(27,37)"/>
<path d="M0 0 C4.875 0.875 4.875 0.875 6 2 C6.125 5 6.125 5 6 8 C5 9 5 9 2.4375 9.0625 C1.633125 9.041875 0.82875 9.02125 0 9 C0 6.03 0 3.06 0 0 Z " fill="#FBFBFB" transform="translate(61,31)"/>
<path d="M0 0 C1.32 0 2.64 0 4 0 C4 0.66 4 1.32 4 2 C2.35 2.66 0.7 3.32 -1 4 C-1 4.99 -1 5.98 -1 7 C-2 9.1875 -2 9.1875 -3 11 C-3 9.35 -3 7.7 -3 6 C-10.92 6 -18.84 6 -27 6 C-27 5.67 -27 5.34 -27 5 C-25.98631348 4.98598145 -25.98631348 4.98598145 -24.95214844 4.97167969 C-21.8840289 4.91792699 -18.81742613 4.83429008 -15.75 4.75 C-14.68652344 4.73582031 -13.62304688 4.72164063 -12.52734375 4.70703125 C-11.50253906 4.67480469 -10.47773437 4.64257812 -9.421875 4.609375 C-8.00793457 4.5779541 -8.00793457 4.5779541 -6.56542969 4.54589844 C-3.32116332 3.85555017 -2.27282991 2.33322192 0 0 Z " fill="#425765" transform="translate(52,62)"/>
<path d="M0 0 C2.31 0 4.62 0 7 0 C7.36275695 4.47400242 7.36275695 4.47400242 5.75 6.8125 C4 8 4 8 0 8 C0 5.36 0 2.72 0 0 Z " fill="#E3E7E8" transform="translate(61,21)"/>
<path d="M0 0 C0.33 0 0.66 0 1 0 C1.12375 0.969375 1.2475 1.93875 1.375 2.9375 C1.58125 3.948125 1.7875 4.95875 2 6 C2.66 6.33 3.32 6.66 4 7 C4 7.66 4 8.32 4 9 C8.62 9 13.24 9 18 9 C18 10.98 18 12.96 18 15 C17.67 15 17.34 15 17 15 C17 13.35 17 11.7 17 10 C8.42 10 -0.16 10 -9 10 C-9 9.67 -9 9.34 -9 9 C-4.545 8.505 -4.545 8.505 0 8 C0 5.36 0 2.72 0 0 Z " fill="#A5B2B8" transform="translate(31,43)"/>
<path d="M0 0 C0.625 2.375 0.625 2.375 1 5 C0.34 5.66 -0.32 6.32 -1 7 C-5 7 -5 7 -6.75 5.625 C-8 4 -8 4 -8 2 C-4.77208445 -0.1519437 -3.71599191 -0.20086443 0 0 Z " fill="#283844" transform="translate(43,55)"/>
<path d="M0 0 C2.0625 0.4375 2.0625 0.4375 4 1 C4 2.32 4 3.64 4 5 C2.02 5.99 2.02 5.99 0 7 C-0.66 5.68 -1.32 4.36 -2 3 C-5.3 3 -8.6 3 -12 3 C-12 2.67 -12 2.34 -12 2 C-11.21753906 1.93941406 -10.43507812 1.87882812 -9.62890625 1.81640625 C-8.61699219 1.73261719 -7.60507812 1.64882813 -6.5625 1.5625 C-5.55316406 1.48128906 -4.54382812 1.40007813 -3.50390625 1.31640625 C-1.06359221 1.26788532 -1.06359221 1.26788532 0 0 Z " fill="#57636D" transform="translate(68,52)"/>
<path d="M0 0 C2.125 0.375 2.125 0.375 4 1 C5.0326802 3.78823655 5.04509293 4.8677274 4.0625 7.75 C3.711875 8.4925 3.36125 9.235 3 10 C2.34 9.67 1.68 9.34 1 9 C1 8.34 1 7.68 1 7 C0.34 7 -0.32 7 -1 7 C-1.625 4.625 -1.625 4.625 -2 2 C-1.34 1.34 -0.68 0.68 0 0 Z " fill="#2C3F4D" transform="translate(28,54)"/>
<path d="M0 0 C1.89492188 0.15275391 1.89492188 0.15275391 3.828125 0.30859375 C4.79234375 0.39238281 5.7565625 0.47617187 6.75 0.5625 C6.75 1.2225 6.75 1.8825 6.75 2.5625 C0.81 2.5625 -5.13 2.5625 -11.25 2.5625 C-11.25 1.9025 -11.25 1.2425 -11.25 0.5625 C-7.43483536 -0.73812431 -3.97438237 -0.33119853 0 0 Z " fill="#101F2C" transform="translate(36.25,63.4375)"/>
<path d="M0 0 C1.98 0 3.96 0 6 0 C5.34 2.97 4.68 5.94 4 9 C2.68 9 1.36 9 0 9 C0 6.03 0 3.06 0 0 Z " fill="#FDFDFD" transform="translate(48,22)"/>
<path d="M0 0 C1.98 0 3.96 0 6 0 C6.25 2.8125 6.25 2.8125 6 6 C4 7.875 4 7.875 2 9 C1.34 6.03 0.68 3.06 0 0 Z " fill="#FCFCFC" transform="translate(42,53)"/>
<path d="M0 0 C2.31 0 4.62 0 7 0 C7 1.65 7 3.3 7 5 C4.69 5 2.38 5 0 5 C0 3.35 0 1.7 0 0 Z " fill="#FAFAFA" transform="translate(41,43)"/>
<path d="M0 0 C1.32 0 2.64 0 4 0 C3.67 2.31 3.34 4.62 3 7 C4.32 7.33 5.64 7.66 7 8 C2.34462607 8.83796731 -1.37078475 9.0161692 -6 8 C-6 7.67 -6 7.34 -6 7 C-3.69 7 -1.38 7 1 7 C0.67 4.69 0.34 2.38 0 0 Z " fill="#404F59" transform="translate(45,24)"/>
<path d="M0 0 C4.51720311 -0.36625971 4.51720311 -0.36625971 6.8125 1.375 C8 3 8 3 8 5 C5.36 5 2.72 5 0 5 C0 3.35 0 1.7 0 0 Z " fill="#FCFCFC" transform="translate(61,42)"/>
<path d="M0 0 C1.98 0 3.96 0 6 0 C6 2.31 6 4.62 6 7 C4.02 7 2.04 7 0 7 C0.185625 6.21625 0.37125 5.4325 0.5625 4.625 C1.25962266 2.02910225 1.25962266 2.02910225 0 0 Z " fill="#416674" transform="translate(68,61)"/>
<path d="M0 0 C1.65 0 3.3 0 5 0 C4.01 0.33 3.02 0.66 2 1 C2 1.99 2 2.98 2 4 C2.66 4.33 3.32 4.66 4 5 C0.37 4.67 -3.26 4.34 -7 4 C-7 3.34 -7 2.68 -7 2 C-4.69 2 -2.38 2 0 2 C0 1.34 0 0.68 0 0 Z " fill="#152834" transform="translate(67,62)"/>
<path d="M0 0 C1.13732426 3.40401948 0.83989957 5.77456664 0.0625 9.25 C-0.13214844 10.14203125 -0.32679688 11.0340625 -0.52734375 11.953125 C-0.68332031 12.62859375 -0.83929688 13.3040625 -1 14 C-1.99 14 -2.98 14 -4 14 C-4.33 13.34 -4.66 12.68 -5 12 C-4.05689819 9.61979068 -3.06639285 7.32214518 -2 5 C-1.32723284 3.3357865 -0.65793165 1.67013418 0 0 Z " fill="#0F393C" transform="translate(148,40)"/>
<path d="M0 0 C0.99 0.66 1.98 1.32 3 2 C2.125 6.875 2.125 6.875 1 8 C-0.66617115 8.04063832 -2.33388095 8.042721 -4 8 C-4.33 7.01 -4.66 6.02 -5 5 C-3.35 5 -1.7 5 0 5 C0 3.35 0 1.7 0 0 Z " fill="#22323F" transform="translate(31,26)"/>
<path d="M0 0 C0.99 0.66 1.98 1.32 3 2 C2.34 3.32 1.68 4.64 1 6 C-2.38023517 6 -4.83468937 5.12544378 -8 4 C-8 3.67 -8 3.34 -8 3 C-6.35 3 -4.7 3 -3 3 C-2.67 2.34 -2.34 1.68 -2 1 C-1.34 1.66 -0.68 2.32 0 3 C0 2.01 0 1.02 0 0 Z " fill="#2A3C48" transform="translate(69,38)"/>
<path d="M0 0 C1.32 0.66 2.64 1.32 4 2 C3.67 3.65 3.34 5.3 3 7 C1.68 6.67 0.36 6.34 -1 6 C-1 3 -1 3 0 0 Z " fill="#325B68" transform="translate(68,70)"/>
<path d="M0 0 C1.2065625 0.0309375 1.2065625 0.0309375 2.4375 0.0625 C2.7675 0.7225 3.0975 1.3825 3.4375 2.0625 C2.7775 2.0625 2.1175 2.0625 1.4375 2.0625 C1.4375 3.0525 1.4375 4.0425 1.4375 5.0625 C-0.5 4.75 -0.5 4.75 -2.5625 4.0625 C-2.8925 3.0725 -3.2225 2.0825 -3.5625 1.0625 C-2.5625 0.0625 -2.5625 0.0625 0 0 Z " fill="#397886" transform="translate(40.5625,54.9375)"/>
<path d="M0 0 C1.32 0 2.64 0 4 0 C3.67 1.32 3.34 2.64 3 4 C-0.63 3.67 -4.26 3.34 -8 3 C-8 2.67 -8 2.34 -8 2 C-5.36 2 -2.72 2 0 2 C0 1.34 0 0.68 0 0 Z " fill="#283A47" transform="translate(69,46)"/>
<path d="M0 0 C0.99 0 1.98 0 3 0 C3 2.64 3 5.28 3 8 C2.01 8 1.02 8 0 8 C0 5.36 0 2.72 0 0 Z " fill="#8D99A0" transform="translate(67,33)"/>
<path d="M0 0 C0.66 0 1.32 0 2 0 C2 1.32 2 2.64 2 4 C2.66 4 3.32 4 4 4 C3.67 4.99 3.34 5.98 3 7 C1.68 6.67 0.36 6.34 -1 6 C-0.34 6 0.32 6 1 6 C0.67 4.02 0.34 2.04 0 0 Z " fill="#334655" transform="translate(28,70)"/>
<path d="M0 0 C1.32 0.33 2.64 0.66 4 1 C4.33 2.32 4.66 3.64 5 5 C3.35 4.67 1.7 4.34 0 4 C0 2.68 0 1.36 0 0 Z " fill="#3B6B78" transform="translate(28,54)"/>
<path d="M0 0 C1.32 0 2.64 0 4 0 C3.67 2.31 3.34 4.62 3 7 C0 3.375 0 3.375 0 0 Z " fill="#3A4855" transform="translate(45,24)"/>
</svg>
